<?xml version="1.0" encoding="UTF-8"?>
<svg enable-background="new 0 0 166.407 236.372" viewBox="0 0 166.407 236.372" xmlns="http://www.w3.org/2000/svg">
 <path d="m55.041,42.591c1.764-.085.044,1.433 0,2.009-1.178-.341.24-1.294 0-2.009z" fill-rule="evenodd"/>
 <path d="m73.926,47.814c.494.176.825.514.804,1.206-.649.113-.692-.38-1.206-.402 .076-.326.403-.401.402-.804z" fill-rule="evenodd"/>
 <path d="m38.567,52.234c-.647.172-1.349-1.498-.402-1.607-.011-.391-.492-.312-.804-.402 .831-2.288 2.094,1.388 1.206,2.009z" fill-rule="evenodd"/>
 <path d="m36.558,51.43c.391.011.312.492.402.804 .125.545 1.006.333 1.607.402-1.803.946-.206,2.796-2.411,3.214-.113-.649.38-.691.402-1.205-2.261-.286-1.041,4.317-2.812,2.009-.78-.159-.587,1.83.402,1.206 .332,1.135-.566,1.041-.402,2.009-1.941.2-1.121-2.361-2.009-3.214 .649-.879 3.815-.559 2.411-3.214 2.124.928 1.792-.57 2.41-2.011z" fill-rule="evenodd"/>
 <path d="m49.014,51.43c1.476,1.392-.159,3.116 1.205,4.42h-1.607c-.04-1.647-.079-3.293.402-4.42z" fill-rule="evenodd"/>
 <path d="m71.113,51.43c.683-.147.758.313.803.804 1.39.327 1.696-.75 2.411,0 .184,1.255-.858,1.285-2.009,1.206 .302-1.374-1.632-.511-1.205-2.01z" fill-rule="evenodd"/>
 <path d="m9.236,51.832c.973.232.894,1.518 1.205,2.411-1.732-.351.765,1.754-1.607,1.205 1.406-1.562-.236-2.398.402-3.616z" fill-rule="evenodd"/>
 <path d="m59.863,51.832c.857-.188.765.574.804,1.206-.326-.076-.401-.403-.804-.402v-.804z" fill-rule="evenodd"/>
 <path d="m50.219,52.234c.969.371 1.639,1.04 2.009,2.009-1.332,1.214-1.821-.851-2.009-2.009z" fill-rule="evenodd"/>
 <path d="m40.576,52.636c.707.097.916.691.804,1.607-1.222.016-2.645.233-2.411-1.206 1.006.051 1.258.768 1.607-.401z" fill-rule="evenodd"/>
 <path d="m42.585,53.439c.973.472 2.967,1.251 2.009,2.411-.684.148-.758-.313-.804-.804-.467-.065-.715.089-.804.402-.87.068-.181-1.425-.401-2.009z" fill-rule="evenodd"/>
 <path d="m45.398,53.439c1.977.125.532,1.344 1.205,2.411 .495-.175.825-.514.804-1.205 .851.919-.179,1.423.402,2.812h-2.009c.82-1.492-.827-1.838-.402-4.018z" fill-rule="evenodd"/>
 <path d="m47.407,53.439h.804v.804h-.804v-.804z" fill-rule="evenodd"/>
 <path d="m62.675,53.439c1.251-.188 1.437,1.01.804,1.607-.707-.096-.916-.691-.804-1.607z" fill-rule="evenodd"/>
 <path d="m63.881,56.654c-1.47.17-2.05-1.63-4.42-1.607-.058-1.129.984-1.159 2.009-1.205 .575,1.256 1.699,2.407 3.214,1.607-.034.57-.066,1.138.402,1.206-.511.557-1.963,1.139-.402,1.607-.76.445-1.408,1.002-2.411,1.205 2.088-1.058-.623-2.423 1.608-2.813z" fill-rule="evenodd"/>
 <path d="m71.917,54.243c1.111-.685 2.455.278 4.018-.402v2.009c-.954.251-1.871.541-2.009,1.607-.769-.169-1.729-.146-1.607-1.206 1.264.192 1.571-.572 2.411-.804-.424-1.283-1.818.001-2.813-1.204z" fill-rule="evenodd"/>
 <path d="m56.648,54.243c1.044.161 1.211,1.199 2.411,1.205-.565.774-1.062,1.617-1.206,2.813-1.176-.564-1.235-2.247-1.205-4.018z" fill-rule="evenodd"/>
 <path d="m64.283,54.645c1.695-.4 3.576.236 4.018,2.009 1.936.195 2.771-.711 3.215-2.009 1.595,2.951-5.394,3.711-6.027,1.607h1.607c-.82-.654-2.103-.844-2.813-1.607z" fill-rule="evenodd"/>
 <path d="m69.104,54.243c1.05-.112 2.011-.136 1.607,1.205-.768-.169-1.729-.145-1.607-1.205z" fill-rule="evenodd"/>
 <path d="m76.738,54.243c.857-.188.765.574.804,1.205-.326-.076-.4-.403-.804-.402v-.803z" fill-rule="evenodd"/>
 <path d="m38.567,54.645c1.35-.413.625,1.25.803,2.009-.721-.051-.847.492-1.607.402 .153-1.618.258-.987.804-2.411z" fill-rule="evenodd"/>
 <path d="m20.888,55.85c-.37,1.095-1.256-.561-2.411,0 .223-1.383 1.554-.232 2.411,0z" fill-rule="evenodd"/>
 <path d="m28.522,55.046h1.607c.405,1.209-.895.712-1.607.804v-.804z" fill-rule="evenodd"/>
 <path d="m41.38,55.046c.712.36.512,1.631 2.009,1.206-.603.469-.982,1.161-2.009,1.206-.074-.342.157-.379.402-.402-.294-.375-.73-.609-1.206-.804 .142-.528.708-.632.804-1.206z" fill-rule="evenodd"/>
 <path d="m51.023,55.85c1.631-.158 2.8.147 2.812,1.607-.467-.065-.715.088-.803.402-.927.123-.447-1.161-1.206-1.206-.391.011-.312.492-.402.804-.545-.124-.333-1.005-.401-1.607z" fill-rule="evenodd"/>
 <path d="m54.237,56.252c.324.279 1.101.625 1.206,0 .597.34.582,1.293.804,2.009-2.322.758-1.521,4.281-1.607,6.429h-2.411c-.405-1.208.895-.712 1.607-.804-.284-.297-1.001-1.967.402-1.607-.078-1.268-2.757-1.143-1.607-2.411 .537.507.789,1.208 1.607.402-1.895-.956 1.443-2.238-.001-4.018z" fill-rule="evenodd"/>
 <path d="m29.326,56.654c.323.212.652.419 1.206.402v2.411c-1.022-.207-1.558-.685-1.607.804-2.029-.896.742-1.96.401-3.617z" fill-rule="evenodd"/>
 <path d="m37.362,57.056c-.668.806-1.079,1.868-2.411,2.009-.068-1.513 1.126-3.094 2.411-2.009z" fill-rule="evenodd"/>
 <path d="m48.21,56.654c.933.138 1.883.26 1.607,1.607-.766-.753-1.01-.044-2.009,0 .313-.358.433-.907.402-1.607z" fill-rule="evenodd"/>
 <path d="m19.683,57.056c.806-.137 1.257.082 1.206.804h-1.206v-.804z" fill-rule="evenodd"/>
 <path d="m24.504,60.672c-2.523-.065-.941-1.863-3.215,0v-2.411c1.615.544 1.063.125.804-1.206 1.742.834.925.373 2.812,0-.627,1.374-.936,1.871-.401,3.617z" fill-rule="evenodd"/>
 <path d="m38.166,59.466c1.011-.596 1.341-1.873 2.812-2.009-.593,1.339-1.248,2.182 1.206,2.009-.051.721.492.848.402,1.607-.467-.065-.715.089-.804.402 .429-1.682-1.603-1.757-3.616-2.009z" fill-rule="evenodd"/>
 <path d="m45.8,58.663c-.584.22-2.077-.469-2.009.402 1.05,1.015 2.816-.768 2.812,1.607-.38-.24-2.07-1.789-2.009,0-1.601.127-1.088-1.858-2.411-2.009 .731-.512 3.351-2.007 3.617,0z" fill-rule="evenodd"/>
 <path d="m38.567,59.868c-.417,1.887-2.463-.648-1.206-1.607 .829.109.097,1.779 1.206,1.607z" fill-rule="evenodd"/>
 <path d="m72.318,58.261h.804v.803h-.804v-.803z" fill-rule="evenodd"/>
 <path d="m81.962,58.261c.649-.113.691.379 1.205.401-.371.7.014,2.157-1.205,2.009v-2.41z" fill-rule="evenodd"/>
 <path d="m31.335,58.663c.707.097.916.691.803,1.607-.7-.363-1.547-.899-.803-1.607z" fill-rule="evenodd"/>
 <path d="m51.023,58.663c1.136-.332 1.041.566 2.009.402 .07.655-2.629.811-2.009-.402z" fill-rule="evenodd"/>
 <path d="m61.068,58.663h.804v.804h-.804v-.804z" fill-rule="evenodd"/>
 <path d="m90.399,59.064c1.172-.59 1.172,1.796 0,1.206v-1.206z" fill-rule="evenodd"/>
 <path d="m49.416,59.466c.78-.159.587,1.83-.402,1.206v-.804c.342.074.379-.157.402-.402z" fill-rule="evenodd"/>
 <path d="m34.549,59.868h.804v.804h-.804v-.804z" fill-rule="evenodd"/>
 <path d="m87.586,60.27c.68-1.039 1.766.882 2.01,1.607-1.375.17-1.207-1.203-2.01-1.607z" fill-rule="evenodd"/>
 <path d="m50.219,60.27c1.224-.018 1.562.849 2.411,1.206-.173.898-1.98.163-2.812.402-.051-.721.492-.848.401-1.608z" fill-rule="evenodd"/>
 <path d="m95.221,60.27c.84-.17 1.064.275 1.607.402 .129.709-2.25.717-1.607-.402z" fill-rule="evenodd"/>
 <path d="m29.326,60.672c.807-.137 1.257.082 1.206.804h-1.206v-.804z" fill-rule="evenodd"/>
 <path d="m38.969 61.074c2.292-1.445 1.764 1.016 0 0z" fill-rule="evenodd"/>
 <path d="m38.567,61.877h-2.411c.08-.598 2.629-1.612 2.411,0z" fill-rule="evenodd"/>
 <path d="m42.987,61.074c.358.312.908.432 1.607.402-.02,2.82-3.207,1.808-2.411,3.616-1.52.582-.771-1.104-2.009-.804 .776-.43 1.642-.769 1.206-2.411 1.286.193 1.767,1.576 1.607-.803z" fill-rule="evenodd"/>
 <path d="m45.398,61.074c.494.175.825.514.804,1.205-.649.113-.692-.379-1.206-.401 .076-.326.403-.401.402-.804z" fill-rule="evenodd"/>
 <path d="m59.863,61.074h1.205c.113.649-.379.691-.401,1.205h-.804v-1.205z" fill-rule="evenodd"/>
 <path d="m67.095,61.074c.631,1.78 1.858.414 2.812.804 .232,1.328-2.257,1.127-4.42,1.607 .847-.861 1.241-.579 1.608-2.411z" fill-rule="evenodd"/>
 <path d="m14.057,61.476c.857-.188.766.574.804,1.205-.325-.076-.4-.403-.804-.402v-.803z" fill-rule="evenodd"/>
 <path d="m47.407,62.279h-.804v-.803c.684-.148.758.313.804.803z" fill-rule="evenodd"/>
 <path d="m87.586,61.476c1.262.613-1.181,1.733-1.606.803-.288-1.091 1.895.287 1.606-.803z" fill-rule="evenodd"/>
 <path d="m96.025,61.476c.03,1.37-1.489,1.189-2.812,1.205 .957-.382 1.191-1.487 2.812-1.205z" fill-rule="evenodd"/>
 <path d="m11.245,61.877c-.78.96.351,3.833-1.607,3.616-.673-1.065.598-2.965 1.607-3.616z" fill-rule="evenodd"/>
 <path d="m13.656,62.681c-.097.707-.691.916-1.607.804-.189-1.252 1.01-1.437 1.607-.804z" fill-rule="evenodd"/>
 <path d="m36.96,62.279c.76.797 1.898.195 2.812,0-.358,1.411.077,1.322-.803,2.411-.39-.682-1.111-1.033-2.411-.804-.17-.84.275-1.064.402-1.607z" fill-rule="evenodd"/>
 <path d="m85.579,62.279c-.372.7.014,2.157-1.206,2.009 .034-.57.066-1.138-.401-1.206 .095-.706.691-.915 1.607-.803z" fill-rule="evenodd"/>
 <path d="m1.2,62.681c.649-.113.692.38 1.206.402-.407,1.067-.661,2.286-2.009,2.411-.042-1.246.49-1.92.803-2.813z" fill-rule="evenodd"/>
 <path d="m23.701,62.681c1.643.729.791,1.564 1.205,3.214-.84.17-1.063-.275-1.607-.401-.497,1.3 1.3.307.804,1.607h-2.813c-.486-3.011 4.012-1.396 2.411-4.42z" fill-rule="evenodd"/>
 <path d="m30.129,62.681h.804c-.074.342.157.379.402.402-1.3.761.185,1.975-.804,3.214-.528-.142-.632-.707-1.206-.803 .816-1.288.46-1.417.804-2.813z" fill-rule="evenodd"/>
 <path d="m49.416,62.681c.147,1.219-1.309.834-2.009,1.206-.058-1.131.984-1.159 2.009-1.206z" fill-rule="evenodd"/>
 <path d="m83.167,62.681c1.326.967-.511,2.136-.803,2.813-.774-.164-.317-1.558-1.607-1.206 .171-2.056 2.936.979 2.41-1.607z" fill-rule="evenodd"/>
 <path d="m47.005,63.083c-.281,1.237-.281.772 0,2.009-.567-.772-1.952-.727-2.812-1.206 .805-1.231 1.488-.091 2.812-.803z" fill-rule="evenodd"/>
 <path d="m87.989,63.083h.804c.188.857-.574.766-1.206.804 .077-.326.404-.401.402-.804z" fill-rule="evenodd"/>
 <path d="m14.459,63.484c.441.452.441,1.557 0,2.009 .315.89 2.488-.077 2.009,1.607-.568.574-1.952-.087-2.812-.402 .365-1.342-.148-1.964.803-3.214z" fill-rule="evenodd"/>
 <path d="m89.194,63.484c.598.475 1.795.348 1.607,1.607-1.258.187-1.793-.349-1.607-1.607z" fill-rule="evenodd"/>
 <path d="m5.62,63.886c1.403-.359.686,1.311.402,1.607-.546-.124-.334-1.006-.402-1.607z" fill-rule="evenodd"/>
 <path d="m12.852,64.69c-2.396.274-1.078-1.853 0,0z" fill-rule="evenodd"/>
 <path d="m63.881,63.886c.589,1.018 2.576.638 2.812,2.009-1.085-.504-2.254-.307-.804.402-.605,1.09-1.733-.639-2.411-.803 .011-.391.492-.312.804-.402-.212-.323-.419-.653-.401-1.206z" fill-rule="evenodd"/>
 <path d="m71.113,64.288c-.113-.639 2.17-.563 1.205.402 .155-.154-1.21-.43-1.205-.402z" fill-rule="evenodd"/>
 <path d="m77.14,63.886c.649-.113.692.38 1.206.402 .159.78-1.83.587-1.206-.402z" fill-rule="evenodd"/>
 <path d="m79.149,63.886c1.742.168-.423,2.332 0,0z" fill-rule="evenodd"/>
 <path d="m16.87,65.092c.097-.707.691-.916 1.607-.804-.363.7-.898,1.548-1.607.804z" fill-rule="evenodd"/>
 <path d="m18.477,64.69c1.01.33 2.153.526 2.009,2.009-.979-.259-2.067-.811-2.009.804-.768-.169-1.729-.146-1.607-1.206h1.205c-.17-.84.276-1.064.402-1.607z" fill-rule="evenodd"/>
 <path d="m43.389,64.69c.857-.188.766.574.804,1.205-.325-.076-.4-.403-.804-.401v-.804z" fill-rule="evenodd"/>
 <path d="m48.21,64.69c.437.099.272.799.804.804 .074.341-.157.379-.402.401h-.804c-.113-.649.38-.691.402-1.205z" fill-rule="evenodd"/>
 <path d="m9.236,65.092c-.704,1.423.268.988.402,2.411-1.045-.161-1.212-1.199-2.411-1.206-.184-1.255.858-1.284 2.009-1.205z" fill-rule="evenodd"/>
 <path d="m13.254,65.092c.053.99.061,1.936-.402,2.411-.705-.367-1.396-.747-1.206-2.009 .358-.313.908-.432 1.608-.402z" fill-rule="evenodd"/>
 <path d="m37.362,66.297c1.081.277.776-.831 1.206-1.205 .798.005.511,1.096 1.607.803-.713,1.348-1.854-.063-2.009,2.009-.54-.264-.749-.859-.804-1.607z" fill-rule="evenodd"/>
 <path d="m51.425,65.092c-.127,1.982-1.818.291 0,0z" fill-rule="evenodd"/>
 <path d="m51.827,65.092c.494.175.825.514.804,1.205-.495-.175-.826-.514-.804-1.205z" fill-rule="evenodd"/>
 <path d="m91.204,65.092c.766.754.727-.239 2.009,0-.367.704-.747,1.396-2.009,1.205v-1.205z" fill-rule="evenodd"/>
 <path d="m80.354,65.494h.804v.803h-.804v-.803z" fill-rule="evenodd"/>
 <path d="m87.185,65.494c1.604.888 1.002,2.591.401,4.018-1.258-.595-1.643-.016-2.41.804-1.136.064-.936-1.207-2.009-1.205 1.261-.405 2.857.062 4.018-1.206v-2.411z" fill-rule="evenodd"/>
 <path d="m5.62,65.895c.851.967.066,2.136 0,2.813-1.228-.291-1.464.411-2.411.402 .854-1.021 2.572-1.178 2.411-3.215z" fill-rule="evenodd"/>
 <path d="m67.497,65.895c.768.169 1.729.146 1.607,1.206-1.049.112-2.011.135-1.607-1.206z" fill-rule="evenodd"/>
 <path d="m77.944,65.895c1.383,1.039-2.067.971 0,0z" fill-rule="evenodd"/>
 <path d="m.798,66.297c.876-.073 1.278.329 1.206,1.206h-1.206v-1.206z" fill-rule="evenodd"/>
 <path d="m43.791,66.699c.139-.485 1.069-.325 1.206,0 .363.869-1.473.931-1.206,0z" fill-rule="evenodd"/>
 <path d="m47.407,66.297c.338.837 1.526,1.695.804,2.411-1.288.112-1.461-1.76-.804-2.411z" fill-rule="evenodd"/>
 <path d="m18.879,66.699h.804v.804h-.804v-.804z" fill-rule="evenodd"/>
 <path d="m42.987,66.699c1.091-.287-.287,1.895.804,1.607-.614,1.262-1.734-1.181-.804-1.607z" fill-rule="evenodd"/>
 <path d="m80.756,66.699c1.059-.121 1.319.557 1.206,1.607-.721-.051-.848.492-1.607.402-.128-.932.064-1.543.401-2.009z" fill-rule="evenodd"/>
 <path d="m63.077,67.101c1.172-.591 1.172,1.796 0,1.206v-1.206z" fill-rule="evenodd"/>
 <path d="m140.625,70.717c-.79,1.172-2.044,1.661-3.214,2.411-1.118.717-2.263,1.981-3.617,2.009-3.438.071-4.952-4.065-8.035-5.224-5.032,1.546-10.391,4.655-15.269,4.018 1.444-1.752 3.922-2.531 6.026-3.616 2.042-1.053 4.162-2.018 6.027-3.214 7.831-.598 12.807,1.658 18.082,3.616z" fill-rule="evenodd"/>
 <path d="m20.888,67.502h1.607v1.607c-1.383.313-1.919-.223-1.607-1.607z" fill-rule="evenodd"/>
 <path d="m40.978,67.904c.025-.028-.028-.397 0-.402 1.93-.34-1.908,2.583 0,.402z" fill-rule="evenodd"/>
 <path d="m69.506,67.502c.358.178.719.353.804.804 1.316-.955 1.898-.19 3.214-.402-.628,1.573-2.165.146-2.411,1.607-.689-.516-1.58-.83-1.607-2.009z" fill-rule="evenodd"/>
 <path d="m77.542,67.502h1.206v1.206c-.877.073-1.279-.329-1.206-1.206z" fill-rule="evenodd"/>
 <path d="m61.872,67.904c.857-.188.766.574.804,1.206-.325-.077-.4-.403-.804-.402v-.804z" fill-rule="evenodd"/>
 <path d="m34.147,69.913c.065-.467-.089-.715-.402-.803 .097-.707.691-.916 1.607-.804-.011.391-.492.312-.804.402 .845.36 1.296,1.114 2.009,1.607-.891,1.5-1.076-1.02-2.41-.402z" fill-rule="evenodd"/>
 <path d="m45.8,68.306c1.172-.591 1.172,1.796 0,1.205v-1.205z" fill-rule="evenodd"/>
 <path d="m8.432,68.708c1.223-.018 1.562.848 2.411,1.205-.289,1.462-2.334-.04-2.411-1.205z" fill-rule="evenodd"/>
 <path d="m81.962,68.708c.891-.221.572.767 1.205.803-.162,1-1.84.307-1.205-.803z" fill-rule="evenodd"/>
 <path d="m5.62,69.11h.804v.803h-.804v-.803z" fill-rule="evenodd"/>
 <path d="m24.906,69.11h.804v.803h-.804v-.803z" fill-rule="evenodd"/>
 <path d="m48.612,69.11c-.163,1.042-1.251,1.16-2.009,1.607 .075-1.131.699-1.712 2.009-1.607z" fill-rule="evenodd"/>
 <path d="m54.639,71.119v-2.009c1.066-.156 1.966,2.66 0,2.009z" fill-rule="evenodd"/>
 <path d="m5.218,69.511c.113,1.051-.147,1.729-1.206,1.607-.41-1.13-.456-1.711 1.206-1.607z" fill-rule="evenodd"/>
 <path d="m22.093 70.315c1.219-1.485 1.354 1.22 0 0z" fill-rule="evenodd"/>
 <path d="m35.353,70.717c-.393,1.824-1.985-.247-4.018,0 1.188-.974 2.651-.605 4.018,0z" fill-rule="evenodd"/>
 <path d="m61.068,69.913h.804v.804h-.804v-.804z" fill-rule="evenodd"/>
 <path d="m70.711,69.913c.894.169.314,2.132 0,2.411-1.373-.165-.511-1.085-2.009-.402v-1.206c.649-.113.692.38 1.206.402 .375-.294.609-.73.803-1.205z" fill-rule="evenodd"/>
 <path d="m80.756,69.913c1.219-.147.834,1.309 1.206,2.009-.705-.367-1.396-.747-1.206-2.009z" fill-rule="evenodd"/>
 <path d="m74.328,71.521c.728-.343 1.108-1.035 2.009-1.206-.065.467.089.715.402.804-.34.77-1.763,1.087-2.411.402z" fill-rule="evenodd"/>
 <path d="m23.299,70.717c.579.091.14,1.199.804,1.206-.454,1.29-1.147-.388-.804-1.206z" fill-rule="evenodd"/>
 <path d="m29.326,71.119c-.948,1.292-1.624-1.413 0,0z" fill-rule="evenodd"/>
 <path d="m54.639,71.922c-.494-.175-.825-.514-.804-1.206 .495.176.826.515.804,1.206z" fill-rule="evenodd"/>
 <path d="m58.657 71.119c1.218-1.486 1.354 1.22 0 0z" fill-rule="evenodd"/>
 <path d="m9.236,71.119c.325.076.4.403.804.402-.077.325-.403.4-.402.804-.326-.077-.401-.403-.804-.402 .076-.326.403-.401.402-.804z" fill-rule="evenodd"/>
 <path d="m15.263,71.119v1.206c-.968.165-.874-.734-2.009-.402 .059-.879 1.012-.863 2.009-.804z" fill-rule="evenodd"/>
 <path d="m17.272 71.521c2.079-1.599 1.552 2.093 0 0z" fill-rule="evenodd"/>
 <path d="m32.942,71.119v.804h-.804v-.804h.804z" fill-rule="evenodd"/>
 <path d="m68.3,74.735c-1,.062-1.244-.631-2.009-.804 .233-1.304-.273-1.869-.402-2.812 .535.402 1.213.663 1.607,1.206-.953,1.616.641.986.804,2.41z" fill-rule="evenodd"/>
 <path d="m29.728,71.521c.471.6 1.669.473 1.607,1.607-.597-.475-1.795-.348-1.607-1.607z" fill-rule="evenodd"/>
 <path d="m42.987,71.521v1.607c-.798-.005-.511-1.096-1.607-.803 .264-.54.859-.749 1.607-.804z" fill-rule="evenodd"/>
 <path d="m75.533,74.333c-.625-.581-1.565-.845-2.411-1.206-.123-.926 1.161-.446 1.206-1.205 .84.365 1.224,1.186 1.205,2.411z" fill-rule="evenodd"/>
 <path d="m52.229,72.726c.949-1.401 1.78,1.447 0,1.205 .278-.324.625-1.1 0-1.205z" fill-rule="evenodd"/>
 <path d="m75.935,72.726c.6-1.207 1.801.295 1.607,1.205h-1.607c-.085-.687.685-1.04 0-1.205z" fill-rule="evenodd"/>
 <path d="m47.809,72.726c.062,1.125-1.136,1.311-1.607.803 .096-.706.691-.915 1.607-.803z" fill-rule="evenodd"/>
 <path d="m60.265,72.726c.707.097.916.691.803,1.607-1.126.063-1.311-1.136-.803-1.607z" fill-rule="evenodd"/>
 <path d="m61.872,72.726h1.206c.113.649-.38.691-.402,1.205h-.804v-1.205z" fill-rule="evenodd"/>
 <path d="m67.497,73.529c.041-1.022 1.497-.949 2.009-.402 .068.872-1.425.183-2.009.402z" fill-rule="evenodd"/>
 <path d="m81.158,74.333c-1.47.264-1.542-.87-2.812-.804 .42-1.136 2.687-1.097 2.812.804z" fill-rule="evenodd"/>
 <path d="m34.549,73.127c-.558.514-.246,1.897-.804,2.411-1.522-.329-.617-2.653.804-2.411z" fill-rule="evenodd"/>
 <path d="m10.843,73.529h.804v.804h-.804v-.804z" fill-rule="evenodd"/>
 <path d="m14.057,74.333c-.112-.639 2.17-.563 1.206.402 .154-.154-1.211-.43-1.206-.402z" fill-rule="evenodd"/>
 <path d="m82.765,73.931c.573.767.934,1.745 1.206,2.812-1.022-.323-1.834-2.065-1.206-2.812z" fill-rule="evenodd"/>
 <path d="m5.62,74.735c-.068-.871 1.425-.182 2.009-.402-.041,1.022-1.498.949-2.009.402z" fill-rule="evenodd"/>
 <path d="m29.728,74.333c-.312.357-.432.907-.402,1.607-1.141-.048-.772-1.713.402-1.607z" fill-rule="evenodd"/>
 <path d="m8.03,74.735c1.449-.069 1.449,2.078 0,2.009 .753-.765.044-1.01 0-2.009z" fill-rule="evenodd"/>
 <path d="m32.138,75.137c.153-.765.511.256.402.804-.153.764-.511-.257-.402-.804z" fill-rule="evenodd"/>
 <path d="m57.05,75.137c.869.336 1.37,1.04 2.812.804-.463,1.278-1.136,2.346-2.411,2.812 1.011-1.914.473-2.047-.401-3.616z" fill-rule="evenodd"/>
 <path d="m74.328,75.137c.78-.159.587,1.83-.402,1.206v-.804c.342.073.379-.157.402-.402z" fill-rule="evenodd"/>
 <path d="m81.56,75.137h.804c.188.857-.574.765-1.206.804 .076-.326.403-.401.402-.804z" fill-rule="evenodd"/>
 <path d="m18.477,76.342c.061-1 1.361-.118 1.607,0 .029,1.204-1.182,2.039-2.009,1.205 .479-.58 1.98-.609.402-1.205z" fill-rule="evenodd"/>
 <path d="m79.953,75.94h.804v.803h-.804v-.803z" fill-rule="evenodd"/>
 <path d="m3.208,77.146c-.112-.639 2.17-.563 1.206.402 .154-.155-1.21-.43-1.206-.402z" fill-rule="evenodd"/>
 <path d="m13.254,77.146c.264-1.203.859.384 1.607,0-.061.999-1.361.117-1.607,0z" fill-rule="evenodd"/>
 <path d="m31.737,77.146c.466.337 1.077.53 2.009.402 .132,1.984-2.225,1.045-2.009-.402z" fill-rule="evenodd"/>
 <path d="m60.265,77.547c.893-1.5 1.077,1.02 2.411.402-.739,1.93-1.359-.327-2.411-.402z" fill-rule="evenodd"/>
 <path d="m79.149,77.146c.78-.159.587,1.83-.401,1.206v-.804c.341.074.378-.157.401-.402z" fill-rule="evenodd"/>
 <path d="m6.825,77.547c1,.061.118,1.361 0,1.607-.999-.06-.117-1.36 0-1.607z" fill-rule="evenodd"/>
 <path d="m20.084,77.547c1.286-.08 1.737.673 2.009,1.607-1.31.105-1.933-.476-2.009-1.607z" fill-rule="evenodd"/>
 <path d="m8.432,77.949c1.232.395-.462,1.072-.402,1.607-1.232-.394.462-1.072.402-1.607z" fill-rule="evenodd"/>
 <path d="m14.459,78.351c-.973,1.318-1.92-1.117 0,0z" fill-rule="evenodd"/>
 <path d="m30.531,78.351c.359-1.085 1.631.187 1.206,1.206-.759-.045-.279-1.329-1.206-1.206z" fill-rule="evenodd"/>
 <path d="m53.032,77.949c.718-.113.824.38.402.402 .13.463 1.752,1.383 2.009.402 .545.125.333,1.006.402,1.607-1.216-.123-1.436-1.243-3.214-.803-.052-.721.491-.848.401-1.608z" fill-rule="evenodd"/>
 <path d="m36.156,78.351c.807-.137 1.257.082 1.206.804h-1.206v-.804z" fill-rule="evenodd"/>
 <path d="m50.621,78.351c1.842.268-.323,2.433 0,0z" fill-rule="evenodd"/>
 <path d="m136.61 80.36c-2.097 1.014-3.751-1.866-6.831-1.205-3.408 2.886-7.648 4.942-12.455 6.429 3.022-3.406 8.1-4.757 12.054-7.232 3.629-0.551 5.1 1.06 7.232 2.008z" fill-rule="evenodd"/>
 <path d="m141.831,78.753c-.279,1.73-2.367,1.651-2.812,3.214 1.983.638 2.725-1.175 3.615-.402-2.148,1.602-3.283,4.217-6.026,5.224-.882.725-.313,2.901-2.009,2.812 .674-1.927.321-3.682-1.206-4.42-2.141.806-2.126,3.768-5.625,3.214v-2.411c-3.287.061-4.979,1.717-7.634,2.411 2.457,1.163 6.736.797 11.25,1.607-4.492.555-11.27,1.701-13.661-1.607 2.155-2.153 6.341-2.758 8.839-5.223 3.104-.722 6.846-.324 10.046,0 1.08-1.934 2.897-5.044 5.223-4.419z" fill-rule="evenodd"/>
 <path d="m14.861 79.155c1.218-1.486 1.353 1.22 0 0z" fill-rule="evenodd"/>
 <path d="m48.612,78.753h.804v.804h-.804v-.804z" fill-rule="evenodd"/>
 <path d="m81.158,78.753c-.035.57-.066,1.138.402,1.206-.761,1.368-2.78-1.454-.402-1.206z" fill-rule="evenodd"/>
 <path d="m10.04,79.557c.121,1.059-.557,1.318-1.607,1.205 .35-.587.318-1.556 1.607-1.205z" fill-rule="evenodd"/>
 <path d="m17.673 79.958c1.219-1.485 1.354 1.221 0 0z" fill-rule="evenodd"/>
 <path d="m37.362,79.958c-.159-.78 1.83-.587 1.206.401h-.804c.073-.34-.157-.378-.402-.401z" fill-rule="evenodd"/>
 <path d="m75.935,79.557h1.607c-.32.885-.807,1.604-2.009,1.607 .312-.358.432-.908.402-1.607z" fill-rule="evenodd"/>
 <path d="m15.665,79.958c-.883,1.228-2.574-.463 0,0z" fill-rule="evenodd"/>
 <path d="m57.05,80.36c.857-.188.765.574.803,1.206-.325-.076-.4-.403-.803-.402v-.804z" fill-rule="evenodd"/>
 <path d="m66.693,80.36c1.678.041 2.735,2.286.804,2.813 .343-.819-.35-2.497-.804-1.206-1.203-.264.385-.859 0-1.607z" fill-rule="evenodd"/>
 <path d="m7.628,81.164c1.242.098.679,2 2.411,1.607 .496,1.3-1.3.307-.804,1.607-1.532-.017-2.068-2.46-1.607-3.214z" fill-rule="evenodd"/>
 <path d="m21.691,81.565c-.973,1.318-1.92-1.117 0,0z" fill-rule="evenodd"/>
 <path d="m25.308,81.164c.533,1.075 1.219,1.996 1.607,3.214-1.539-.357-2.96-2.253-1.607-3.214z" fill-rule="evenodd"/>
 <path d="m26.111,81.164c.649-.113.692.38 1.206.402 .159.779-1.83.586-1.206-.402z" fill-rule="evenodd"/>
 <path d="m38.567,81.164c-.097.707-.691.916-1.607.804 .264-.54.859-.749 1.607-.804z" fill-rule="evenodd"/>
 <path d="m66.292,94.825c-4.298-3.726-8.102-10.896-14.867-12.054-1.003-.172-3.021-.277-4.42,0-4.53.897-10.568,9.581-9.643,14.867 .546,3.124 2.246,6.65 3.616,9.241 1.461,2.764 3.509,5.313 5.625,7.634 2.614,2.867 6.265,4.769 8.84,7.634 2.215,2.466 3.169,6.426 6.027,7.635 3.937.662 7.326-1.165 9.644-.804-.77,5.213-8.064,3.343-10.849,1.607-2.781-1.734-4.532-5.025-5.625-6.831-5.803-4.228-16.098-15.315-18.081-24.51-.569-2.639-.311-6.132.804-8.438 1.173-2.426 3.673-5.976 5.224-7.232 3.547-2.877 7.661-2.297 12.054-.402 4.929,2.128 10.108,6.527 11.651,11.653z" fill-rule="evenodd"/>
 <path d="m58.255,81.164h1.206v1.206c-.877.072-1.278-.33-1.206-1.206z" fill-rule="evenodd"/>
 <path d="m32.138,81.565c.54.264.749.859.804,1.607-1.229.292-1.182-.693-2.411-.402 .073-1.75 1.91.48 1.607-1.205z" fill-rule="evenodd"/>
 <path d="m34.951,81.565c.946.215.245,1.901-.402.804 .076-.326.403-.4.402-.804z" fill-rule="evenodd"/>
 <path d="m61.068,81.967c1.515-.176.141,2.538 2.411,1.607 .641.296-.092,1.967 1.205,1.607-1.096.582-4.576-1.703-3.616-3.214z" fill-rule="evenodd"/>
 <path d="m5.218,82.369c.357.312.907.432 1.607.402 .128.709-2.251.717-1.607-.402z" fill-rule="evenodd"/>
 <path d="m71.113,82.771c1.06-.123 1.036.839 1.205,1.607-1.34.404-1.317-.558-1.205-1.607z" fill-rule="evenodd"/>
 <path d="m22.093,83.575c1.188.581.347.897.804,2.411-.612-.727-2.755.076-2.411-1.607 .712-.092 2.013.404 1.607-.804z" fill-rule="evenodd"/>
 <path d="m32.54,84.378c.454-1.291 1.147.387.804,1.206-1.4-.119.033-1.088-.804-1.206z" fill-rule="evenodd"/>
 <path d="m36.558,83.976h1.206c.113,1.051-.147,1.729-1.206,1.607v-1.607z" fill-rule="evenodd"/>
 <path d="m69.908,83.976c1.178.341-.24,1.294 0,2.009-1.06.122-1.036-.839-1.206-1.607 .57.035 1.138.066 1.206-.402z" fill-rule="evenodd"/>
 <path d="m81.56,83.976c.876-.073 1.278.329 1.205,1.206h-1.205v-1.206z" fill-rule="evenodd"/>
 <path d="m75.533,84.378c.495.175.825.514.804,1.206-.495-.176-.826-.515-.804-1.206z" fill-rule="evenodd"/>
 <path d="m14.459,84.78h1.206c-.29,1.228.411,1.464.402,2.411-1.578-2.274-2.538.19-4.42.803 .255-1.753 2.461-1.556 2.812-3.214z" fill-rule="evenodd"/>
 <path d="m74.328,85.182c.494.175.825.514.804,1.206-.649.113-.692-.38-1.206-.402 .076-.326.403-.401.402-.804z" fill-rule="evenodd"/>
 <path d="m7.227,86.789c.326.076.401.403.804.402v.803c-.467-.065-.715.089-.804.402-1-.061-.118-1.36 0-1.607z" fill-rule="evenodd"/>
 <path d="m23.299,87.994c-.467.065-.715-.088-.804-.402-.471.065-.339.733-.402,1.206-2.369-.388 1.095-3.057 1.206-.804z" fill-rule="evenodd"/>
 <path d="m8.834,87.592h.804c.188.857-.574.766-1.206.804 .076-.325.403-.4.402-.804z" fill-rule="evenodd"/>
 <path d="m66.292,87.592c.649-.113.692.38 1.206.402 .158.78-1.831.588-1.206-.402z" fill-rule="evenodd"/>
 <path d="m65.89,102.459c-2.586-.757-3.045-3.712-4.42-5.625-2.315-3.223-4.843-6.249-9.241-7.634 .122,1.218 1.55,1.128 1.607,2.411-.563,1.312-1.455,2.295-2.411,3.214-2.428-.341-.957-4.912.402-5.223-10.392-.226-6.637,12.076-4.018,17.277 2.465,4.895 7.868,7.981 8.84,12.858-4.125-5.702-10.453-10.313-13.26-18.081-1.596-4.418-1.368-8.396 1.607-10.849 9.163-7.556 16.968,4.175 20.894,11.652z" fill-rule="evenodd"/>
 <path d="m7.628,88.798c.649-.113.692.38 1.206.402 .159.779-1.83.587-1.206-.402z" fill-rule="evenodd"/>
 <path d="m12.852,88.798c1.172-.591 1.172,1.796 0,1.206v-1.206z" fill-rule="evenodd"/>
 <path d="m18.879,88.798c.54.264.749.859.804,1.607-.707-.097-.916-.691-.804-1.607z" fill-rule="evenodd"/>
 <path d="m22.495,89.2v1.206c-.806-.137-1.257.082-1.206.803-1.735-.542-.081-2.118 1.206-2.009z" fill-rule="evenodd"/>
 <path d="m23.701,89.2h.804v.804h-.804v-.804z" fill-rule="evenodd"/>
 <path d="m30.531 90.405c-1.476 1.411-1.965-1.522 0 0z" fill-rule="evenodd"/>
 <path d="m77.944,90.003c.573.536 1.063,1.787.402,2.411-1.127-.696-.378-1.053-.402-2.411z" fill-rule="evenodd"/>
 <path d="m12.45,91.208c.091-.512 1.199-.526 1.206,0 .391-.011.312-.492.401-.803 1.588.128-.297,1.244.804,1.607-.837,1.321-1.694-.678-2.411-.804z" fill-rule="evenodd"/>
 <path d="m76.336,90.405c.614.006.881,2.978-.402,2.411 .353-1.423.051-.988.402-2.411z" fill-rule="evenodd"/>
 <path d="m13.254,94.825c-.859-.48-.499-2.179-2.411-1.607-.625-1.428 1.365-.243 1.206-1.206-.112-.843-1.073.583-1.607-.402 .091-.579 1.199-.14 1.206-.803 1.286.588 1.294,2.455 1.606,4.018z" fill-rule="evenodd"/>
 <path d="m71.917,92.012c-1.261.446-1.062.188-2.009-.402 .073-1.234 2.164-.843 2.009.402z" fill-rule="evenodd"/>
 <path d="m15.263,91.208c1.251-.188 1.437,1.01.804,1.607-.708-.096-.917-.69-.804-1.607z" fill-rule="evenodd"/>
 <path d="m9.236,92.414c1.842.268-.323,2.433 0,0z" fill-rule="evenodd"/>
 <path d="m135,92.414c.649-.113.692.38 1.206.402 .445,5.164-2.732,8.291-8.037,6.429 2.009-2.544 6.477-2.631 6.831-6.831z" fill-rule="evenodd"/>
 <path d="m15.263,93.62c-.128-.709 2.251-.717 1.607.402-.721.05-.848-.493-1.607-.402z" fill-rule="evenodd"/>
 <path d="m10.843,93.62c1.208-.405.712.895.804,1.607-.701-.363-1.548-.899-.804-1.607z" fill-rule="evenodd"/>
 <path d="m32.138,93.62c-.175.494-.514.825-1.205.804 .175-.495.514-.826 1.205-.804z" fill-rule="evenodd"/>
 <path d="m60.265,97.638c-4.148.406-4.06,5.047-7.232,6.429-.323-3.542 2.553-7.355 5.223-9.242 1.438.169 1.933,1.281 2.009,2.813z" fill-rule="evenodd"/>
 <path d="m10.441,96.834c-.159-.78 1.83-.587 1.206.402h-.804c.074-.342-.157-.379-.402-.402z" fill-rule="evenodd"/>
 <path d="m14.459,96.834c.572-1.764 1.656,1.889 0,1.206-.084-.688.685-1.041 0-1.206z" fill-rule="evenodd"/>
 <path d="m20.486,96.432h.803c.188.857-.574.765-1.205.804 .077-.326.403-.401.402-.804z" fill-rule="evenodd"/>
 <path d="m24.504,97.236c.436.099.272.799.803.804 .074.341-.157.379-.402.401h-.803c.213-.323.419-.652.402-1.205z" fill-rule="evenodd"/>
 <path d="m11.245,98.04c.185-1.111 1.416.593.804,1.205-.062.061-.779-1.356-.804-1.205z" fill-rule="evenodd"/>
 <path d="m11.646,99.646c1.158.181 1.257,1.422 2.812,1.206-.638.871-3.553.635-2.812-1.206z" fill-rule="evenodd"/>
 <path d="m17.673,100.048c.528.142.632.708 1.206.804 .074.342-.157.379-.402.402h-.804v-1.206z" fill-rule="evenodd"/>
 <path d="m20.486,100.852c1.208-.405.712.895.803,1.607-.706-.097-.915-.691-.803-1.607z" fill-rule="evenodd"/>
 <path d="m21.29,105.673c1.314-.745 1.053-2.171 2.411-2.009 .147-.684-.313-.758-.804-.804 .341-.596 1.011-.864 2.009-.804-.147.684.313.758.804.804-.065.471-.732.339-1.205.402 .584,2.191-1.275,1.939-1.607,3.214-1.097.294-.81-.797-1.608-.803z" fill-rule="evenodd"/>
 <path d="m17.673,102.861c.315-.922 2.488-.391 2.009.804-1.236.299-.772-1.103-2.009-.804z" fill-rule="evenodd"/>
 <path d="m17.272,103.263c.857-.188.765.574.803,1.206-.325-.077-.4-.403-.803-.402v-.804z" fill-rule="evenodd"/>
 <path d="m30.933 105.27c-1.476 1.41-1.965-1.522 0 0z" fill-rule="evenodd"/>
 <path d="m28.522,105.673c.587.351 1.556.319 1.206,1.607-1.059.122-1.319-.556-1.206-1.607z" fill-rule="evenodd"/>
 <path d="m53.032,105.673c1.315,3.641 4.528,5.383 7.634,7.232 .621-.584.354-2.057.401-3.214 2.534,1.083 1.977,5.256 2.813,8.037-1.045.16-1.212,1.198-2.411,1.205-.84-6.167-10.152-5.861-8.437-13.26z" fill-rule="evenodd"/>
 <path d="m22.093,106.477c.188.857-.574.766-1.205.804 .076-.325.403-.4.401-.804h.804z" fill-rule="evenodd"/>
 <path d="m19.683,107.281c-.312.357-.432.907-.402,1.607-.323-.213-.652-.419-1.206-.402 .35-.588.602-1.274 1.608-1.205z" fill-rule="evenodd"/>
 <path d="m30.129,107.683h.804c.188.857-.574.765-1.206.804 .077-.326.404-.402.402-.804z" fill-rule="evenodd"/>
 <path d="m15.263,108.084c1.27.204 1.764,1.183 3.214,1.205-.261.409-.924.416-.804,1.206-.615-.991-2.831-.382-2.41-2.411z" fill-rule="evenodd"/>
 <path d="m21.29,108.084c1.349.367.199.747.402,2.009-.721.051-.847-.492-1.607-.402 .163-.774 1.557-.317 1.205-1.607z" fill-rule="evenodd"/>
 <path d="m23.299,108.486c1.617.292.023,1.886-.804.803 .1-.435.799-.272.804-.803z" fill-rule="evenodd"/>
 <path d="m144.241,108.486c-.799.941-.926,2.557-.803,4.419 3.653,5.168 9.107-2.307 13.66-2.009-.39,1.849-4.477,4.053-7.232,4.822-2.38.665-4.438.378-6.026-.402-.397-1.344-1.276-2.207-1.607-3.616-1.603,6.434-6.356,9.715-10.849,13.26 1.65-5.314 4.758-9.172 9.241-11.653-.167-1.908.195-3.287.804-4.419 1.394.322 1.544-.598 2.812-.402z" fill-rule="evenodd"/>
 <path d="m24.906,109.29c.649.395.925,1.072.402,1.607-.932-.112-.924-1.073-.402-1.607z" fill-rule="evenodd"/>
 <path d="m32.138,109.29c.477,1.525 1.33,1.478 2.411,1.607-.943.655-4.634.631-4.42-1.206 1.163.069 1.832,1.64 2.009-.401z" fill-rule="evenodd"/>
 <path d="m16.468,110.897c1.176.361 1.234.361 2.411,0 .576,1.254-2.987,1.254-2.411,0z" fill-rule="evenodd"/>
 <path d="m26.513 112.5c-0.948 1.293-1.624-1.413 0 0z" fill-rule="evenodd"/>
 <path d="m17.272,112.504c2.189-.314.314,3.436 2.812,2.812-1.212,2.94 2.421,4.011 2.009,6.83 .351.588.319,1.557 1.607,1.206-.869,2.271.811,4.578 2.411,5.625 .248,1.291-1.446.551-.402,1.607 1.372,1.709.856,5.305 2.812,6.429-.799,4.454 2.582,8.104 2.411,13.26 11.381,11.639 27.667,18.044 42.993,25.715 3.966,1.985 7.61,3.701 12.054,5.224 7.847,2.688 15.722,6.19 24.108,9.241 2.171.79 4.703,1.085 6.428,2.812-5.527-1.337-12.451-1.988-18.08-4.018-3.191-1.151-5.903-3.16-9.242-4.42-3.366-1.271-6.849-2.147-10.045-3.616-3.02-1.388-5.842-3.288-8.839-4.822-3.095-1.584-6.198-2.828-9.242-4.419-5.876-3.072-11.791-5.973-17.679-9.644-2.833-1.767-6.053-3.017-8.438-4.821-2.078-1.573-2.909-4.628-5.625-5.224 .178,2.654 2.202,4.894 3.616,6.83 4.307,5.896 9.136,11.548 14.465,16.876 10.492,10.492 21.193,20.071 31.742,30.537 10.125,10.043 21,20.171 32.546,29.331-4.536,1.795-5.167-1.452-8.839-4.42-7.807-6.306-14.277-12.912-21.296-19.286-5.052-4.588-10.251-9.955-15.269-14.866-6.933-6.786-13.716-13.559-20.09-20.492-3.411-3.711-6.737-6.854-9.644-10.849-2.825-3.884-5.348-7.918-8.438-11.652-1.627,8.552-5.771,14.587-9.242,21.296 12.368,20.714 26.461,39.702 39.376,59.868-5.838-5.899-10.26-12.972-15.269-19.688-8.057-10.807-15.869-22.988-23.304-34.957 .329-2.069-.913-2.569-1.206-4.018-2.983.812-3.709,5.871-6.831,5.224 2.508-4.883 5.72-9.439 8.036-14.465 2.373-5.147 4.998-10.081 6.831-15.671 1.261-.189 1.062,1.082 2.009,1.206 .291-2.276-1.073-3.729.804-4.42-2.332-13.339-6.878-24.462-12.054-34.957-.712-.293-.054-.729.004-1.204z" fill-rule="evenodd"/>
 <path d="m19.281,112.906c.932.112.923,1.073.402,1.607-.932-.112-.924-1.073-.402-1.607z" fill-rule="evenodd"/>
 <path d="m24.504,113.308c.709-.128.717,2.251-.402,1.607-.17-.84.276-1.064.402-1.607z" fill-rule="evenodd"/>
 <path d="m34.549,114.111c.405,1.208-.896.712-1.607.804 .265-.54.859-.748 1.607-.804z" fill-rule="evenodd"/>
 <path d="m25.308,116.121h1.206v1.205c-.877.073-1.279-.329-1.206-1.205z" fill-rule="evenodd"/>
 <path d="m26.915,116.121h1.206c-.213.323-.419.652-.402,1.205-.495-.176-.825-.514-.804-1.205z" fill-rule="evenodd"/>
 <path d="m24.504,117.728c.898.173.163,1.979.401,2.812-1.435-1.16-.278-1.625-2.411-.804-.555-1.895 1.806-.873 2.01-2.008z" fill-rule="evenodd"/>
 <path d="m26.111,118.129c.721-.051.848.492 1.607.401-.556.65-1.422.989-1.206,2.411-.614-.56-1.14-2.078-.401-2.812z" fill-rule="evenodd"/>
 <path d="m24.906,120.942h.804v.804h-.804v-.804z" fill-rule="evenodd"/>
 <path d="m32.942,120.942c.091,1.679-.653,1.897 0,3.215-2.474.413.555-2.346-1.607-2.411 .264-.539.859-.748 1.607-.804z" fill-rule="evenodd"/>
 <path d="m25.709,125.763c.153-.765.511.257.402.804-.153.766-.511-.256-.402-.804z" fill-rule="evenodd"/>
 <path d="m31.335,126.166h.803v.804h-.803v-.804z" fill-rule="evenodd"/>
 <path d="m26.111,127.371c.857-.188.765.574.804,1.206-.326-.077-.4-.403-.804-.402v-.804z" fill-rule="evenodd"/>
 <path d="m29.728 129.38h1.206v1.206h-1.206v-1.206z" fill-rule="evenodd"/>
 <path d="m73.524 140.23c4.794 3.242 5.416 10.656 8.036 16.072-2.371-1.872-2.851-5.373-4.018-8.036-1.252-2.856-3.29-5.155-4.018-8.036z" fill-rule="evenodd"/>
 <path d="m143.839,141.434c2.52.561 4.896,1.264 7.634,1.607-2.039.558-7.598,1.176-7.634-1.607z" fill-rule="evenodd"/>
 <path d="m84.373,150.274c.649-.113.692.379 1.206.401 1.254,3.97 4.787,5.659 6.026,9.644-3.368-1.989-5.024-5.69-7.634-8.438-.17-.84.276-1.064.402-1.607z" fill-rule="evenodd"/>
 <path d="m114.508,167.149c-.104,1.543-1.943.67-2.813.804-2.376.365-4.974.67-7.634.804 .189-2.879 4.07-1.57 6.027-1.607 1.848-.035 3.455-.68 4.42-.001z" fill-rule="evenodd"/>
 <path d="m122.142,189.249c1.345.309 1.169,2.096 1.606,3.214 2.455,6.266 9.529,18.542 2.812,25.313-2.236.245-3.711-.771-4.82-2.009-1.092-1.217-3.96-5.837-4.822-8.036-1.459-3.721-1.334-7.449-3.215-10.446-1.181,7.39-3.908,13.771-7.232,19.688-.833,1.484-2.021,2.913-2.812,4.42-.797,1.521-.463,3.591-2.41,4.42 1.969-10.085 6.533-17.574 9.643-26.519 1.158-.048.697-1.714 2.01-1.607 .604-2.145-.279-3.28 1.205-4.42 5.253,1.443 3.838,9.556 7.232,12.857 1.784-3.469-1.489-10.67-3.215-14.465 .084-2.06 2.339-1.947 4.018-2.41z" fill-rule="evenodd"/>
 <path d="m145.848,236.259h-8.036c.278-.324.626-1.101 0-1.206-1.429-.624-.242,1.365-1.205,1.206-2.358.349-3.611-.407-4.821-1.206 2.16,2.113-2.532.866-4.42,1.206-.952-4.794-3.326-12.048-1.607-16.876 3.236.308 4.126,1.468 7.232.804 4.967,4.677 9.185,10.101 12.857,16.072zm-8.036-1.607c-.026-1.447-1.065-1.882-2.009-2.411 .225,1.248.48,2.467 2.009,2.411z" fill-rule="evenodd"/>
 <path d="m123.749,19.688c-.854.128.574,1.244.805,1.607-.49,1.214-1.605-.213-1.607-.804-.471.065-.34.732-.402,1.206-.877.073-1.278-.329-1.205-1.206-.877.213-2.6.972-2.812-.402-.826.112-.803,1.073-1.205,1.607-1.279-.609-4.076-1.802-5.626-.804-1.9-1.314-4.312-2.118-6.026-3.616-1.213.735-1.074,1.294-2.01,1.607-.018.688.299,1.041.804,1.206-.128.854-1.243-.574-1.606-.804-.146.925-1.76.384-1.607,1.607-.836-.235-1.299-.844-2.01-1.206 .213.323.42.652.402,1.206-1.744-1.53-3.994-4.497-3.616-6.831-.57.034-1.138.066-1.206-.402-.723,1.541 1.618,3.462 2.01,5.223-.773.78-1.617-.422-2.812-.401 .134.937.412,1.731 1.205,2.009-.541,1.148-1.027-1.069-2.009-.804-.513.091-.526,1.199 0,1.206-1.67.72-3.288-2.06-4.42-3.214-.729,1.281 1.444,3.098 2.411,4.018-.854,1.213-1.496-1.151-2.411-1.206-1.304.696 1.044,1.053.401,2.411-2.218.343-2.955-.794-3.214-2.411-.946.339.024,2.072.401,2.411-1.152,1.255-1.625-1.567-2.41-2.009-.947.109-.246,1.779.401,1.607 .159.963-1.83-.223-1.206,1.206-.706-.366-.735-1.408-1.205-2.009-1.066-.128.375,2.25-1.206,1.607 .224,1.672 1.44,3.774 0,4.822 .634,4.284-.276,7.352.402,10.447 .383,1.75 2.231,3.247 1.206,5.625 .264,1.204.858-.384 1.607,0-.43,1.501.997,1.146.803,2.411-.324.345-1.1.239-1.205.804 .65,1.743.5-.442 2.01,0 .508,1.58-.948,1.195-2.01,1.205-.302,1.508 1.535.876 1.607,2.009 .631-.173.344-1.264 1.607-.804 .558.514.246,1.897.803,2.411 2.428.84 1.556,2.903 3.215,4.018 .164.968-.734.874-.402,2.009-1.393.322-1.544-.599-2.812-.402-.324.076-.4.403-.803.402-.285,1.49.686,1.724.401,3.214-1.247-1.721-2.185.022-2.812-1.206-.185-1.648.858.164 2.009-.402-.041-1.565-1.744-1.469-3.214-1.607 .77-.837 1.541-1.674 2.813-2.009 .112.649-.38.692-.401,1.206 .588.319 1.064-.512 2.812,0-.906-.644-3.176-1.353-2.01-2.812 .634,1.509 2.061,2.225 3.215,3.214 .291-1.229-.693-1.182-.402-2.411-.357.312-.907.432-1.607.402-.292-1.096.799-.809.805-1.607-.278-1.26-1.072-.524-2.01-.402 .788-2.036-.564-1.104-.803-2.812-1.447-.107-1.937.742-3.215.803-.134-1.697-2.33-1.777-1.206-3.616-1.242.901-1.515,2.771-3.214,3.214-.482-.527-.157-.632 0-1.205-1.979-.031-.793,1.576-.804,2.812-1.019-.723-1.822-1.66-3.616-1.607-.193-1.948 1.572-2.176 2.812-1.607 1.255-2.038-3.855-2.502-2.812-4.42-.721-.051-.848.492-1.607.402-.101,1.172.757,1.386 1.206,2.009 .323,1.699-2.771,3.494-2.812,1.206 .721-.051.848.492 1.607.402-.212-.323-.419-.652-.401-1.206-1.799-.593-1.234,1.177-2.813.804-.292-1.096.798-.809.804-1.607-.467.065-.715-.089-.804-.402-.687.128.37,1.244-.803,1.607 .32,1.153 2.694.252 2.411,2.009-1.136.332-1.041-.566-2.009-.402-.074,1.134 1.582,1.007 0,1.607-.172,1.11 1.498.377 1.607,1.206-.194,1.145-1.525,1.153-2.411,1.607-1.657-2.211 1.403-3.556-.804-4.822-.949,1.109-.33,2.895-.804,3.616-.658-.268-1.681-2.433-1.607,0-1.008-.465-1.346-1.601-2.813-1.607-.165-.968.734-.873.402-2.009-1.073-.989-1.958-.679-2.812-2.411-1.08,1.025 2.751,3.278.402,4.419-.765-.975.356-1.871-1.206-2.411-.221,1.005-2.709,1.31-2.411-.402-.326.077-.4.403-.804.402-1.229.495 2.153,1.112 0,1.607 .474.999 1.989.958 2.812,1.607-.066,2.255-2.08.517-2.812,0 .765,1.338.571,1.306.804,2.812-2.587.001-1.414-1.747-2.411-2.812-.317-1.02-1.405,1.13-2.009,0v-1.607c1.305.233 1.869-.274 2.812-.402-1.031-1.211 1.705-2.48-.803-2.813-.974.919-.485,1.424-.402,2.813-.712-.092-2.012.405-1.607-.804-.472,1.939-3.363-.212-3.616,2.411-.666-.539-.302-2.109-1.607-2.009 2.346-1.022.645-3.622 4.018-3.616 .154-1.36-1.778-.632-1.205-2.411-1.011.329-.561,2.119-1.206,2.813-.57-.035-1.138-.066-1.206.402-1.214-.489.213-1.605.804-1.607-.282-1.474-2.31-.624-2.411.402-.299,1.237 1.103.772.804,2.009-1.584-.513-1.043,1.1-1.607,1.607-.128,1.065 2.251-.376 1.607,1.206-1.555.445-1.43-1.42-2.411-.402-.068,1.005.617,1.258 1.206,1.607 1.006.068 1.258-.617 1.607-1.205 .379.817-.744,1.703-1.206,2.411-1.385-.49-2.281-1.47-3.214-2.411-1.044-.241-1.446.161-1.206,1.205-1.88-.687.438-1.599.804-2.411-.065-.471-.732-.339-1.206-.402 .475-1.063.348-1.248 1.607-.804-1.483-1.485-2.378.587-4.42-.804-.537.278.198,1.072-.402,2.009-.357-.178-.719-.353-.804-.804-.77.045.472,1.346 0,2.411-1.612-1.318-2.697.575-2.411,2.411-1.833-.635-.848,1.853-3.214,1.607-.344-1.282.632-1.243.804-2.009-.125-.545-1.006-.333-1.607-.402-.588.751-.77,1.909-2.411,1.607 .797,1.519.578,4.998-1.607,4.821-.591,1.528 1.796.079 1.206,1.607-1.237-.281-.772-.281-2.009,0 1.095-.675-1.114-2.359 1.206-2.009 .159-.963-1.83.223-1.206-1.205 .528-.482.632-.157 1.206,0-.188-1.419.657-3.871-1.206-3.616-.983.044-.085,1.328.402,1.205-1.087,1.268-2.075,1.079-4.018.804 1.13-.611 3.176-.307 2.411-2.812 1.664.565 2.09-2.16 1.205-2.812 .37-.702 1.256-.887 2.411-.804-1.32-1.319.351-3.203-1.607-3.616 .346-.324.239-1.101.804-1.206 .123-.926-1.161-.446-1.206-1.205-.769,1.027.678,2.854-1.205,3.214-.068.871 1.425.182 2.009.402v2.009c-2.183-.308-2.632,1.118-3.616,2.009 .18,1.838 1.729-.612 2.009.402-.239,3.037-3.181.876-4.42,2.813-1.229.291-1.182-.693-2.411-.402-.493,1.237-.839,2.151-2.009.803-.051.721.492.848.402,1.607 .26.648 1.825-1.272 2.411.402 .188.857-.574.765-1.205.804 .363.708.898,1.244 1.607,1.607-.915.623-.759.837-.402,2.009 1.153,1.334 2.469.29 4.42.402 .033.636-.193,1.532.402,1.607-.897.87-2.764-.699-4.018-.804-1.036.097.552.691 0,1.607-1.588-.31-3.01-3.626-1.206-4.822-1.268-1.946-4.527-1.901-5.223-4.42h-2.009c.475-1.062.348-1.248 1.607-.803-.217-1.196-2.129-1.469-.402-2.411-1.225-.649-1.949-1.801-4.018-1.607 2.582,1.011-1.344,2.794 0,5.223-1.745-.405-1.791.888-2.411,1.607 1.538.447 1.936,1.539.804,2.812 .292.9 1.209-.888 2.009-.804 .105-1.176-.908-1.234-.804-2.411 1.121-1.073 1.985.376 3.214.402 .303,1.508-1.535.876-1.607,2.009 1.516,1.358 2.446-1.287 2.009-3.214h1.607c-1.208,1.716-.266,1.972.402,3.616-1.215-.574-2.319-.334-2.411,1.206-.76-.445-1.898-.513-2.812-.804 .155,1.051 1.289,1.123.804,2.812-.391-.011-.312-.492-.402-.803-1.751-.793-3.814-1.276-5.224-2.411-.202,1.81 1.847,1.368 1.607,3.214 .968.165.874-.734 2.009-.402-.236,1.639-2.883.867-3.616,2.009 .049,1.416.585.11 1.607.804 .084.687-.685,1.041 0,1.205-.581,1.123-1.932.685-2.812,0 .748-1.887.41-4.201 2.009-3.616 .303-1.508-1.535-.876-1.607-2.009-.597.175.158.514 0,1.206-.968.164-.874-.734-2.009-.402-1.083-3.889.447-7.051 0-12.054 .649-.113.692.38 1.206.402-1-1.377-1.311-5.505.804-6.027-.011-.391-.492-.312-.804-.402 .385-1.223.474-2.741 1.607-3.214-1.175-.648.641-2.071-.401-2.411 3.198-7.248 6.72-14.173 12.054-19.286 1.13,1.263 1.1-1.042 2.009,0 .669-.536.624-1.787 1.205-2.411 1.262-.19 1.062,1.082 2.009,1.206-.221-1.603-.221-1.21 0-2.812 1.259-.188 1.133,1.01 1.607,1.607 .842-.619.143-2.389 1.206-.804 .815-.714.265-1.634 1.206-.401 .871.067.182-1.425.402-2.009 1.176-.887 2.198-.438 2.812-2.411 1.857-.079 4.576-.631 6.027-2.812 2.228.831 3.409-2.09 4.018-.402 .23-1.432 1.196-.797 2.009-1.206 .864-.434.975-1.127 1.206-1.206 .619-.21.746.551 1.206.402 1.53-.495 1.105-.703 2.812-.804 2.065-.122 2.41-2.287 3.616,0 .089-2.724 5.138-.487 6.027-2.411 .688-.018 1.041.299 1.206.804 1.486-2.15 5.111.308 6.429-2.009 .535.402 1.213.663 1.607,1.206 .375-.294.608-.73.804-1.206 1.554,1.66 2.99-1.447 4.821.804 1.234.042 1.223-1.354 3.214-.804 .318.088.685.782.804.804 .207.037 1.5-1.767 2.009,0 .436-.099.272-.799.803-.804 4.034,1.339 9.976-2.543 12.858,1.607 .58-.491.609-1.534 1.205-2.009 1.217.889 3.021.331 4.815-.397 2.58,1.761 6.645-.305 8.438,2.009 .471-.065.339-.732.401-1.206 1.237-.563.608,1.125 1.607,1.206 .933.076.451-1.218.804-1.206 1.917.071 3.618.783 5.625.804 5.388.056 12.497.054 16.876,1.607 1.373-1.265 4.068-.041 6.429,0 4.022,3.71 5.169,7.462 5.625,12.857 .239,2.831.847,6.144 1.206,9.242 .114.993-.27,1.847 0,2.812 .594,2.135 2.559,4.714 3.615,7.634 .327.903.484,1.91.805,2.812 1.477,4.172 3.225,11.375 5.625,16.875 .851,1.95 2.607,3.227 3.615,5.224 .992,1.963 2.125,6.039 2.01,7.232-.35,3.604-5.26,4.814-6.83,6.831-1.76,6.344 2.229,7.959 6.428,6.831-.37,1.906-2.939,1.614-4.821,2.009 1.342,3.806 5.83,7.885 8.438,13.259 .156.322-.166.888 0,1.206 .479.916 1.86,3.402 3.214,5.625 1.038,1.706 2.323,2.944 2.411,3.616 .809,6.197-5.865,7.268-11.251,9.241-3.368,5.027 3.306,11.381-3.214,13.26-.981,1.161-.892,3.395-1.205,5.224 1.717,1.362 3.57,2.59 5.223,4.018 .91,6.4-3.175,7.808-6.027,10.447 3.352,3.053 6.013,7.543 5.625,12.857-.873,11.993-20.084,12.395-30.135,7.634-2.447,1.806-4.346,4.512-4.018,7.232 .339,2.807 5.672,6.879 6.83,9.644 12.213,10.422 25.484,19.786 38.172,29.733-1.85,1.418-4.744-1.392-6.831-2.812-2.06-1.402-4.333-3.703-6.429-4.822-.617-.329-1.451-.051-2.009-.401-1.367-.859-2.399-2.538-4.019-3.616-1.447-.965-3.562-1.438-4.821-2.411-.28-.216-.154-1.021-.401-1.205-2.109-1.568-4.93-2.414-6.027-4.821-6.827-4.021-11.35-10.349-14.465-18.081-1.82,3.27-1.805,8.373-3.616,11.652-1.724-2.474-.433-7.137.401-10.447 1.03-4.089 3.001-8.043 5.625-9.644-1.998-2.377-5.646-2.228-8.839-3.214-.676-.209-.921-.964-1.607-1.206-1.972-.693-4.941-.146-6.026-2.009 14.376-.407 32.326,13.616 45.001,2.009 2.494-5.891.615-13.078-4.019-15.268-.027-5.52 6.213-4.771 6.831-9.644-1.154-1.524-3.679-1.679-4.419-3.616-.409.261-.416.924-1.206.804-4.224-2.542-12.95.938-16.876-2.411-1.58,2.438-2.488,5.548-2.812,9.241-2.209-.449-.538-3.063-.803-5.625 1.822-1.525 2.67-4.025 2.812-7.232 7.06-1.646 15.165-2.246 20.893-5.224-2.742-3.969-.232-6.765.805-10.848 2.5-1.296 5.857-3.723 8.839-3.214 1.306-.898 2.664-3.294 2.411-5.224s-3.938-4.926-5.625-8.438c-.301-.626-.164-1.379-.402-2.009-.859-2.267-2.379-4.556-3.616-6.429-2.514-3.807-5.573-5.943-5.625-12.456-.032-4.119.679-9.437 6.429-11.25-1.916-5.892-6.51-10.025-8.438-16.072-.879-2.759-1.006-5.897-2.01-8.84-2.087-6.12-5.865-12.218-5.625-19.688-.295-.375-.73-.609-1.205-.804-1.041,1.439-.053,2.516-1.205,3.214-.117.07-1.709-1.174-1.205.804-1.863.122-1.945-1.537-2.412-2.813-.545.125-.332,1.006-.401,1.607-1.341-.429-.025-1.219-.804-2.411-1.26.278-.523,1.072-.401,2.009-3.063-1.824-6.407-1.858-8.439-4.016zm-40.582,30.537c-1.413,1.624 1.292.948 0,0zm-8.036-41.787c.475.463 1.42.455 2.411.402-.036-1.501-.451-1.145 0-2.411-.7.03-1.25-.09-1.607-.402 .747,1.411-.306,1.321-.804,2.411zm-2.813.803c1.237-.281.772-.281 2.009,0-.09-.76.453-.886.402-1.607-1.5-.16-2.357.321-2.411,1.607zm57.86,5.224c.836.235 1.299.844 2.009,1.205 .028-2.707-.455-4.902-2.009-6.027-.802,1.556 1.039,3.77 0,4.822zm3.615-3.616c-1.087,2.835 1.071,5.888 2.412,7.634 .408-2.236-.372-6.53-2.412-7.634zm3.215,4.018c.818-1.239.182-4.454-1.607-4.42 .515,1.494.145,3.873 1.607,4.42zm-25.715,1.607c-.469-.067-.437-.635-.402-1.206-.473.063-1.141-.069-1.205.402 .473.121 1.009,2.127 1.607.804zm-35.76,19.688c1.447-.242 1.185,1.227 2.411,1.205 .494-1.736-2.284-2.505-2.411-1.205zm-10.045,2.411c.194-.91-1.007-2.413-1.607-1.206 1.291-.353.55,1.325 1.607,1.206zm-3.616,1.205c.209-.595.595-1.013.804-1.607-.891-.297-1.656,1.481-.804,1.607zm12.456-1.205c-2.039-1.096-1.496,1.403 0,0zm-34.556.803c-1.624-1.413-.947,1.293 0,0zm8.037,1.206c-.514-.022-.556-.515-1.206-.401-.624.988 1.365,1.18 1.206.401zm8.839,4.018c-.122.938-.858,1.731.402,2.009 1.181-.883-1.117-3.165.803-3.616 .95,1.109-.241,3.465.402,4.018 1.114-.202 2.73-2.421 3.214-.804-1.189.089-.945,2.066 0,2.411 .374-1.354 2.628-4.707 1.607-4.821 .073.876-.329,1.278-1.206,1.205 .612-1.739-1.835-2.168-2.009-.804 .473.063 1.141-.069 1.205.402-1.411-.235-1.321,1.899-2.411.804 1.367-1.088-.045-1.428 0-3.214-3.07,1.631-1.971-1.757-3.616-2.009 .143,2.017-.822,2.928-1.206,4.419-.822-.147.019-3.994-.803-2.812 .322,1.394-.599,1.544-.402,2.812 1.254.222 2.377,1.145 4.02,0zm-7.634-2.411c-.055-.749-.265-1.343-.804-1.607-.112.916.097,1.51.804,1.607zm.402-.402c1.025-.046 2.067-.076 2.009-1.206-.7.372-2.157-.013-2.009,1.206zm20.09-.804c-.76.09-.886-.453-1.607-.402-.644,1.12 1.735,1.112 1.607.402zm-43.797,2.01c.085-.486.446-.247.804,0 .018-.553-.189-.882-.402-1.206 .49-.045.951-.12.804-.804h-2.009c-.059.997-.075,1.951.803,2.01zm20.091-.402c.004-.531.704-.367.803-.804-.798-.005-.511-1.096-1.607-.804-.112.916.097,1.511.804,1.608zm16.072-.402c1.225-.157 2.046,1.056 2.411-.402-.595-.209-1.013-.594-1.607-.804 .119.79-.543.797-.804,1.206zm4.42.402c.246-.347 2.253-.883.804-1.607-.165.685-.518-.084-1.206,0 .068.601-.144,1.482.402,1.607zm-36.163-.804c-.136-.325-1.067-.485-1.206,0-.265.931 1.571.869 1.206,0zm.804,1.608c.001,1.073-1.27.873-1.206,2.009 1.572.635.832-1.043 1.607-1.206-.085,1.291 1.433.978 2.009,1.607 .005-.798 1.096-.511.804-1.607-.601-.068-1.483.144-1.607-.401 1.18-.294 1.434-1.513 2.009-2.411-.584.22-2.077-.469-2.009.402 .648.154-.613,2.991-1.607,1.607zm42.993-.402v-.804c-.742-1.335-1.959,1.206 0,.804zm-52.235,2.812c.312-.894.232-2.179 1.206-2.411 .195.475.428.911.804,1.205-.43-1.501.998-1.145.804-2.411-1.177.361-1.235.361-2.411,0-.341,1.036-3.017,3.249-.403,3.617zm46.609-2.812v.804c.989.625 1.182-1.365.402-1.206-.022.245-.06.475-.402.402zm6.028,2.008c.827.709 2.452-.22 2.009-2.009-.601.068-1.483-.144-1.607.402 .473.063 1.14-.069 1.205.402v.803c-.602.069-1.483-.143-1.607.402zm2.812,0h1.206c.64-.634-.194-1.845-1.206-2.009v2.009zm-59.868-.401c.509.697 1.358,1.053 1.205,2.411h2.411c-1.785-1.576-1.399-1.609-1.607-3.616 .194,1.265-1.843.3-2.009,1.205zm25.715-1.205c-2.067.97 1.384,1.038 0,0zm20.894,1.606c.473.063 1.14-.069 1.205.402-.471.6-1.669.473-1.607,1.607 1.005-.05 1.258-.767 1.607.402-.579.225-.98.626-1.205,1.205 .765.172 1.009.866 2.009.804-.207-1.994-.167-2.143-.402-3.616 1-.044 1.244-.753 2.009,0-.575-4.329-.553-.005-2.009-2.411 .297,1.369-1.481.663-1.607,1.607zm-51.431-.401c-.595-.209-1.013-.594-1.607-.803-.423,1.015 1.355,1.78 1.607.803zm65.896,2.009c1.6,1.725 1.519-3.093 3.214-1.206-.485.356-1.741,1.958-.804,2.411 .589-2.01 1.558-.921 2.411-1.205-.533-.672-1.554-.856-1.205-2.411-2.007-1.087-2.323,1.6-3.616,2.411zm-71.119-.402c.329-1.534-.855-1.556-1.607-2.009-1.027,1.074.086,2.275 1.607,2.009zm2.009-1.607c-.514-.022-.557-.515-1.206-.402-.624.989 1.365,1.181 1.206.402zm29.331,2.411c-.239-.833.497-2.64-.402-2.813-.066,1.165-1.81,2.717.402,2.813zm4.018-.804c.759-.09.886.453 1.607.402-.044-1-.753-1.244 0-2.009h-1.206c.031.7-.089,1.25-.401,1.607zm8.036.402c1.136.332 1.041-.566 2.009-.402 .187-1.258-.35-1.793-1.607-1.607 .332,1.135-.566,1.041-.402,2.009zm-21.697.402v-1.206h-1.205c-.073.877.328,1.278 1.205,1.206zm-7.634,2.812c1.63-.337 2.266-3.269.804-3.616 .367,2.04-2.81,2.243-.804,3.616zm-9.242-2.812c-.391,1.458 2.246.856 2.009,0-.999-.044-1.244-.753-2.009,0zm24.108.402h.804v-.804h-.804v.804zm14.063,2.41c.757-.8.377-1.716.804-2.009 .105.565.881.458 1.206.804 .209-.594.594-1.013.804-1.607-2.201.143-1.958.376-4.018.803-.293,1.097.798.809.804,1.607-.916.552-1.511-1.036-1.607,0 .465.338 1.076.53 2.007.402zm-6.027-1.607c-.798-.005-.511-1.096-1.607-.803-.423,1.016 1.355,1.78 1.607.803zm-26.92.402c.759-.09.886.453 1.607.402 .106-1.174-1.559-1.543-1.607-.402zm65.092.803c.521-.534.529-1.495-.402-1.607-.523.535-.248,1.213.402,1.607zm-59.065-1.205c-.323,2.432 1.842.268 0,0zm6.027.804c.691.021 1.03-.309 1.206-.804-.632.038-1.394-.054-1.206.804zm3.214,0c.514.022.557.515 1.206.402 .021-.691-.31-1.03-.804-1.206 .001.403-.325.478-.402.804zm45.806,0c-.574-.096-.678-.662-1.206-.804-.352.827 1.042,1.805 1.206.804zm-68.306,0c-1.354-1.221-1.219,1.485 0,0zm9.241,1.205c.223-.253 1.632-1.214.402-1.607 .06.535-1.634,1.213-.402,1.607zm-1.206,2.813c.628-1.979-.629-1.821-.402-4.018h-1.607c.436,1.573.526,3.492 2.009,4.018zm13.662-3.617c-.323,2.433 1.842.268 0,0zm-19.287,1.608v-.804c-.742-1.335-1.959,1.206 0,.804zm51.431.401c-.069-.601.144-1.482-.402-1.607-.522.534-.53,1.495.402,1.607zm-57.458.402c.352-.827-1.042-1.804-1.206-.803 .634.036.315,1.024 1.206.803zm12.456-.803c.6,1.223-.132,1.562.402,2.411 .998-.317 2.93-2.222 1.206-2.812 .784,2.057-.63.806-1.608.401zm7.634,2.41c.118-.476 1.618-1.518.402-2.009 .008.601-1.493,1.644-.402,2.009zm-10.045-1.205c-1.92-1.117-.973,1.318 0,0zm-11.652,2.009c.998.06 1.667-.208 2.009-.804-.543-.126-.767-.572-1.607-.402 .017.554-.19.883-.402,1.206zm9.643.803c.073-.876-.329-1.278-1.205-1.205-.073.877.329,1.279 1.205,1.205zm119.334,77.147v2.812c4.54,1.487 12.23-.176 16.072,2.009 .512-1.851-2.037-.641-2.41-1.607 .271-1.202 2.686-.26 2.812-1.607-1.174-.433.37-3.584-.804-4.018-5.012,1.871-9.209,2.072-15.67,2.411z" fill-rule="evenodd"/>
 <path d="m15.665,57.859c-.217,1.423 1.423.988 1.206,2.411-1.096.036-.809-.669-1.607,0 .125.545 1.006.333 1.607.402 .051.721-.492.847-.402,1.607-.543-.395-.803-1.072-1.206-1.607-1.332.408-1.743-.229-2.411,1.206-1.128.172 1.007-1.498-.402-1.607 .169-.902 2.132-.011 2.411-.804-.225-.908-.626.487-1.205-.402 .278-.794 1.072-1.071 2.009-1.206z" fill-rule="evenodd"/>
 <path d="m81.962,51.43c-.065.471-.733.339-1.206.402 .339,1.268 2.072,1.143 2.411,2.411 .947.009 1.183-.692 2.412-.402-.193,1.438-2.535.441-1.206,2.411-.247.557-1.547.061-1.607.804-1-.164-.023-1.558.804-1.206 .051-.721-.492-.847-.402-1.607-.766.171-.727,1.148-2.009.803-.333,1.442.906,1.944 0,2.813-.409-.261-.416-.924-1.206-.804-1.656.982.055,2.907-2.411,2.812 .629-.576.316-2.094 1.607-2.009-.064-.471-.732-.339-1.205-.402 .001-2.311 1.589-1.921 2.812-1.206-.393-.411-.794-.813-1.206-1.206 .341-.864.99-1.421 2.411-1.205-.077-.326-.403-.4-.402-.804-1.263-.007-2.242,1.327-3.214.402 .368-.861 3.272-1.25 2.009-2.411 .395-1.229 1.073.464 1.608.404z" fill-rule="evenodd"/>
 <path d="m81.56,23.706c1.109-.172.377,1.498 1.205,1.607-.223.832-1.555-.542-1.205-1.607z" fill-rule="evenodd"/>
 <path d="m91.204,57.056h1.205c-1.18,1.38 1.375,1.6 1.205,3.214-1.389-.486-1.877-1.874-2.41-3.214z" fill-rule="evenodd"/>
 <path d="m73.926,58.663c1.606.96 1.746-.584 2.812-1.205 1.201.841-.06,2.587-.804,2.812 1.438,1.019 4.198-.075 4.822-1.206 .391.011.312.492.402.804v.804c-.893-.93-1.567.136-2.812,0-.351,1.288.618,1.257 1.205,1.607-2.437,1.032-2.179-2-4.821-1.607-.173-.765-.866-1.009-.804-2.009z" fill-rule="evenodd"/>
 <path d="m65.086,58.261c1.047-.264.938.318 2.813-.402 .616,2.625-3.394.625-2.411,3.616-1.508.302-.876-1.535-2.009-1.607 .384-.318 3.27.218 1.607-1.607z" fill-rule="evenodd"/>
 <path d="m71.515,59.064c-.453,1.178-1.154-.663-1.607-.803-.918.689-.358,2.856-2.411,2.411 .231-.84.996-1.147.803-2.411 1.629-.418 2.409-.392 3.215.803z" fill-rule="evenodd"/>
 <path d="m60.667,59.064c-.065.471-.733.339-1.206.402 .212.323.419.652.402,1.206-1.973.009.149-2.914.804-1.608z" fill-rule="evenodd"/>
 <path d="m48.21,59.466c.767-.859-.438,1.652.402,2.411-1.87.141-1.104-1.887-.402-2.411z" fill-rule="evenodd"/>
 <path d="m31.737,63.083c.051-.721-.492-.847-.402-1.607 .357-.178.718-.353.803-.804 1.211.497.029,1.789 1.607,2.411 .545-.63.809-2.412 2.009-1.205-.996,1.383-.567,2.472-1.205,2.411-.206-.02-1.554.776-1.206,2.009-.891.221-.572-.767-1.206-.803 .225-.835.627-.852 1.206-.402v-1.607c-.124-.547-1.005-.335-1.606-.403z" fill-rule="evenodd"/>
 <path d="m55.845,61.877c-.767-.279.434-.625.402,0 2.108-2.667 4.672,1.425 1.205,2.009 .447-1.663.627-1.483-1.205-1.206 .065-.466-.089-.714-.402-.803z" fill-rule="evenodd"/>
 <path d="m56.247,63.484c.665-.172-.036,1.498-.402,1.607 .225.908.626-.487 1.206.402v2.009c-.419-.671-1.562-2.009-2.009-.402-.471-.6-1.669-.473-1.607-1.607 1,.044 1.244.753 2.009,0 .197-1.269-.724-1.419-.402-2.813 1.296-.821.563,2.282 1.205.804z" fill-rule="evenodd"/>
 <path d="m58.255,63.886c1.219-.147.834,1.309 1.206,2.009-.391-.011-.312-.492-.402-.803-.93.3-1.871,1.6-2.009-.402 .806.137 1.257-.082 1.205-.804z" fill-rule="evenodd"/>
 <path d="m61.872,61.074c-.983-1.096 1.204,1.421 1.206-.402 1.469.632-.934.6-.402,1.607-.376-.295-.61-.731-.804-1.205z" fill-rule="evenodd"/>
 <path d="m28.121,61.877c.112-.95 1.073.46 1.607.401-2.498.733.28,4.798-1.607,6.429-.008-.694-.411-2.641-2.009-1.206-1.349-.367-.199-.747-.402-2.009 1.246,1.423 1.057-.026 2.411-.402-.046-2.057-1.33-.547-2.813-.804 .103-1.386 4.209-.855 2.813-2.409z" fill-rule="evenodd"/>
 <path d="m72.318,65.494h1.206c-.22-1.521-1.308-2.175-1.206-4.018 .745,1.398 1.562,2.724 2.813,3.616-.225.579-.627.98-1.206,1.205 .539,1.377 1.643,2.808 3.214,2.009-.26,1.213-1.825,1.121-2.411,2.009-.889-.086.638-1.118 0-1.607 .045.035-1.115.627-1.206.402-.066-.165.906-.559.804-1.206-.151-.961-2.159-.5-2.008-2.41z" fill-rule="evenodd"/>
 <path d="m6.825,63.886c.167-1.371 2.203.607 2.009-.402 .391.011.312.492.402.804-.342-.074-.379.157-.402.402-.484-.454-.728-1.147-2.009-.804z" fill-rule="evenodd"/>
 <path d="m89.998,62.681c.584-.622 1.567-.843 2.813-.803 .391,1.462-1.958.186-1.206,2.009 1.537-.546 2.738-1.322 2.812,1.206-1.111.068-1.38-.617-.804-1.206-1.238-.3-.49,1.385-2.009.804-.223-.983-.941-1.469-1.606-2.01z" fill-rule="evenodd"/>
 <path d="m51.425,62.681c.247-.584.486.041 0,0z" fill-rule="evenodd"/>
 <path d="m69.908,63.083c1.698.538-.384.937-.402,2.009-.876.073-1.278-.329-1.206-1.206 .597.633 1.796.448 1.608-.803z" fill-rule="evenodd"/>
 <path d="m75.935,64.288c-.21-1.159 1.836,3.143 0,0z" fill-rule="evenodd"/>
 <path d="m36.156,64.288c.466.337 1.078.53 2.009.402-.785,1.527-2.178,1.333-.804,3.214-.721.051-.848-.492-1.607-.402-.089-1.721 1.337-1.638.402-3.214z" fill-rule="evenodd"/>
 <path d="m88.391,65.494c.848-1.455.697,1.398 2.008.803-.064.471-.732.339-1.205.402 .017-.687-.299-1.041-.803-1.205z" fill-rule="evenodd"/>
 <path d="m34.147,66.297c.142-.629.708.352.804-.402 .471.065.339.733.402,1.206-.528-.143-.632-.708-1.206-.804z" fill-rule="evenodd"/>
 <path d="m60.265,66.297c1.384-1.62.271,1.974.803,1.607-1.307.866-.692-1.482-.803-1.607z" fill-rule="evenodd"/>
 <path d="m49.818,66.297c.718-.119.025,1.559-.804,1.206-.221-.891.767-.573.804-1.206z" fill-rule="evenodd"/>
 <path d="m30.129,68.306c-.78-.159-.587,1.83.402,1.205-.006.614-2.978.881-2.411-.401 .341-.074.379.156.401.401 .597-.34.582-1.293.804-2.009 1.327,1.719 1.626-1.3 4.018-.804-.281,1.948-2.357,1.696-3.214,1.608z" fill-rule="evenodd"/>
 <path d="m51.023,66.699c.649-.113.692.38 1.206.402-.061.743-1.361.247-1.607.804-1.369-.429 1.117-.126.401-1.206z" fill-rule="evenodd"/>
 <path d="m8.834,67.502c.625,1.428-1.365.243-1.206,1.206-.759-.035.098-1.72 1.206-1.206z" fill-rule="evenodd"/>
 <path d="m67.497,68.708c-.679.238-4.416.678-2.411,0 .688.018 1.041-.299 1.206-.804 .923.416 1.849.83 2.411,1.607-.06,1-1.36.118-1.607,0 .075-.325.402-.4.401-.803z" fill-rule="evenodd"/>
 <path d="m40.174,69.11c-.597.632-1.795.447-1.607-.804 1.307.032 2.165.514 2.411,1.607-.684.148-.758-.313-.804-.803z" fill-rule="evenodd"/>
 <path d="m1.2,69.11c1.833.711 2.586,2.503 4.42,3.214 .896-.059-.521-1.013 0-2.009 1.407-.317 1.265,2.306 2.009.402 1.307.935-1.725,2.5.804,2.812-.491,1.217-1.534-.284-2.009-.402-2.662.817-.731,2.645-.804,4.42-.9-.172-1.424-4.107-1.607-4.821-1.036-1.107-2.764-1.522-2.813-3.616z" fill-rule="evenodd"/>
 <path d="m13.656,69.913c2.002.293 3.43-.091 5.223-.803 .45,1.304 1.412,2.336 2.812,1.607-.858,1.903-1.164,2.782-2.009,4.018 .01-.486.172-1.874.804-3.214-2.106-2.637-4.832.987-6.83-1.608z" fill-rule="evenodd"/>
 <path d="m27.317,69.11c.042,1.247-1.264,1.146-.804,2.812-1.136-.332-1.041.566-2.009.402v-2.009c1.447,1.329 1.668-1.004 2.813-1.205z" fill-rule="evenodd"/>
 <path d="m42.987,69.511c1.576.496 1.237,2.254 2.813.804-.576.588-.308,1.273.803,1.206-.367.704-.747,1.396-2.009,1.206 .09-1.698-1.422-1.793-1.607-3.216z" fill-rule="evenodd"/>
 <path d="m78.346,69.913c.408.261.416.924 1.205.804-.163,1.001-1.558.024-1.205-.804z" fill-rule="evenodd"/>
 <path d="m39.772,70.315c.934,1.452-1.423,1.294-.402,3.214-1.044.241-1.446-.161-1.205-1.205-.588-.007-1.273,1.694-1.206,0 2.001.393 1.06-2.155 2.813-2.009z" fill-rule="evenodd"/>
 <path d="m57.452,73.127c.457.077.223.403 0,.402-.128,1.066 2.251-.375 1.607,1.206-1.31.135-2.603-.617-1.607-1.608z" fill-rule="evenodd"/>
 <path d="m69.908,73.931c.456.077.223.403 0,.402-.292,1.229.693,1.182.402,2.411-1.033-.039-.575-1.568-1.607-1.607-.123-.927 1.16-.447 1.205-1.206z" fill-rule="evenodd"/>
 <path d="m45.8,74.333c-.7,2.039 1.744.935 1.607,2.411-1.586-.155-2.184-1.298-3.214-2.009-.357.178-.719.353-.804.804-1.052.591.58-2.105 2.411-1.206z" fill-rule="evenodd"/>
 <path d="m78.346,74.735c.42-1.027 2.152,1.568 0,1.206 .278-.325.625-1.101 0-1.206z" fill-rule="evenodd"/>
 <path d="m29.728,75.94c.599-1.324 1.134.683 1.607.803-.363,1.09-.899-.918-1.607-.803z" fill-rule="evenodd"/>
 <path d="m10.04,75.94c1.637-.03 1.692,1.522 2.009,2.812-.597-1.01-1.874-1.34-2.009-2.812z" fill-rule="evenodd"/>
 <path d="m25.709,77.146c1.088-1.268 2.075-1.079 4.018-.803-.135.581-2.085,1.334-1.206,1.607-.555.914-.915-1.731-2.812-.804z" fill-rule="evenodd"/>
 <path d="m72.72,76.744c-1.057.991-2.328-1.159 0,0z" fill-rule="evenodd"/>
 <path d="m22.093,77.949c-.137-.806.082-1.257.804-1.206-.744.708.104,1.244.804,1.607-.113.95-1.074-.459-1.608-.401z" fill-rule="evenodd"/>
 <path d="m67.095,77.146c1.495.169-.689,1.281.402,2.813-1.13.058-1.159-.984-1.206-2.009 1.761.292-.323-.799.804-.804z" fill-rule="evenodd"/>
 <path d="m42.184,77.547c1.088.653 3.414.069 3.214,2.009-1.081.277-.777-.831-1.206-1.206-.978.26-2.067.813-2.008-.803z" fill-rule="evenodd"/>
 <path d="m29.326,79.155c.112-.95 1.073.46 1.607.402-.394,1.232-1.072-.462-1.607-.402z" fill-rule="evenodd"/>
 <path d="m69.104,79.557c.688-1.414.81,1.008 1.607.803-.363,1.089-.899-.919-1.607-.803z" fill-rule="evenodd"/>
 <path d="m72.318,79.155c1.059-.121 1.319.556 1.206,1.607-1.081.716-.776-1.77-1.206-.402-.596-.175.159-.514 0-1.205z" fill-rule="evenodd"/>
 <path d="m16.066,80.762c.743,1.668 3.453,1.369 4.018,3.214-1.299-1.111-3.78-1.041-4.018-3.214z" fill-rule="evenodd"/>
 <path d="m82.364,81.164c.113.718-.38.825-.402.402-1.495-.615-.969-1.142.402-.402z" fill-rule="evenodd"/>
 <path d="m12.048,81.967c-.957-.876.821.201 1.607,0 .007.588-1.695,1.273 0,1.206-.261.408-.924.416-.804,1.205-.828-.477.42-1.741-.803-2.411z" fill-rule="evenodd"/>
 <path d="m8.432,85.583c-.65,1.173-.989.441-2.411.402 .332-1.136-.566-1.041-.402-2.009 2.332-.323 2.186,1.833 4.018,2.009 1.074.119-1.068-1.559.803-1.206 .562,1.155-1.095,2.041 0,2.411-.415.775-1.592-1.053-2.008-1.607z" fill-rule="evenodd"/>
 <path d="m13.254,84.378c1.413.688-1.008.81-.804,1.607-1.088-.363.919-.899.804-1.607z" fill-rule="evenodd"/>
 <path d="m18.477,86.789c.047-1.025.076-2.067 1.206-2.009 .065.467-.089.715-.402.804 .065.471.732.339 1.206.402-.035.57-.066,1.138.402,1.206 .123.926-1.161.446-1.206,1.205-.679-.23 1.598-2.151-1.206-1.608z" fill-rule="evenodd"/>
 <path d="m78.748,84.78c1.423.045-.854,1.329.401,1.206-.387.818-1.543.868-2.812.804 .061-1.413 2.457-.49 2.411-2.01z" fill-rule="evenodd"/>
 <path d="m71.113,85.583c.596-1.321.625,1.192 1.205,1.206-.044.759-1.328.279-1.205,1.205-1.086-.798.63-1.9 0-2.411z" fill-rule="evenodd"/>
 <path d="m33.746,86.789c.613-1.236.391,1.78-.804,1.205 .752-1.823-1.596-.546-1.205-2.009h1.607c-.17.773.275,1.451.402.804z" fill-rule="evenodd"/>
 <path d="m78.346,88.798c.277-1.081-.831-.776-1.206-1.206 1.397.041 3.221-.775 5.224-1.205 .412,1.35-1.25.625-2.009.804-.104,1.662.477,1.616 1.607,1.205 .221.891-.768.572-.804,1.206-.738-.894-1.652-1.324-2.812-.804z" fill-rule="evenodd"/>
 <path d="m71.113,88.396h1.205v2.009c-.471-.065-.339-.733-.402-1.206-1.238-.3-.49,1.385-2.009.804-.59-1.528 1.797-.079 1.206-1.607z" fill-rule="evenodd"/>
 <path d="m31.737,89.2c-.715,2.233 1.944,1.041 2.411,2.812h-2.411c-.195-.914-.798-2.053 0-2.812z" fill-rule="evenodd"/>
 <path d="m17.272,93.218c.264-1.204.858.384 1.607,0-.848.597-1.525,2.693-2.812,1.607 .222-.494 2.636-.783 1.205-1.607z" fill-rule="evenodd"/>
 <path d="m24.906,94.423c-.408.261-.415.924-1.205.803-.159.963 1.83-.223 1.205,1.206-.954-.251-1.87-.54-2.009-1.607 1.109-.23 1.411-1.268 2.812-1.205 .034.636-.193,1.532.402,1.607 .119.718-1.558.025-1.205-.804z" fill-rule="evenodd"/>
 <path d="m30.933,98.843c1.071.839-.333,2.587-1.206,2.813v-1.607c.705.74 1.397.048 1.206-1.206z" fill-rule="evenodd"/>
 <path d="m15.263,102.057c1.255-.123-1.021,1.161.402,1.206 .047.411-1.733.813-.402,1.206 .074.342-.157.379-.402.402h-.804c1.448-2.12-1.24-1.425-1.607-2.813 1.502-.375 2.301,1.702 2.813-.001z" fill-rule="evenodd"/>
 <path d="m30.129,103.665c.4-1.238 1.086.448 1.206.804-.404,1.24-.38-1.155-1.206-.804z" fill-rule="evenodd"/>
 <path d="m16.468,104.87h.804c-.074.342.156.379.401.402-.162.775-1.84.035-1.205,1.607h-2.009c-.497-1.3 1.3-.307.804-1.607 .375.246 1.482.935 1.205-.402z" fill-rule="evenodd"/>
 <path d="m29.728,108.888c.074.341-.157.379-.402.401-.904.436-.153,2.526-2.009,2.009 .011-.391.492-.312.804-.402-.984-.534.441-1.495-.402-1.607 .602-.861.982.289 2.009-.401z" fill-rule="evenodd"/>
 <path d="m26.513,113.709c.858-.992-.113,1.276-.402,1.607-1.562-.468-.109-1.049.402-1.607z" fill-rule="evenodd"/>
 <path d="m61.872,62.681c1.127.697.378,1.053.402,2.411-1.553.908-1.585-.746-2.812-1.206 .338-.866 2.071-.339 2.41-1.205z" fill-rule="evenodd"/>
</svg>
