<?xml version="1.0" encoding="UTF-8"?>
<!DOCTYPE svg  PUBLIC '-//W3C//DTD SVG 20010904//EN'  'http://www.w3.org/TR/2001/REC-SVG-20010904/DTD/svg10.dtd'>
<svg width="300pt" height="300pt" version="1.0" viewBox="0 0 300.000000 300.000000" xmlns="http://www.w3.org/2000/svg">
 <g transform="translate(0 300) scale(.1 -.1)">
  <path d="m2250 2991c0-5 24-24 53-41 28-18 87-59 130-92 90-69 103-57 20 21l-58 53 69-37c38-21 78-45 88-54 66-53 119-115 154-176 37-67 39-74 39-160v-90l-139-320c-76-176-144-333-152-350-7-16-43-97-78-180l-65-150-83 4c-46 2-86 8-90 14-3 6 2 22 13 35 10 14 19 32 19 41s7 25 15 35c8 11 15 28 15 39 0 10 9 30 20 44s20 33 20 42c0 10 7 26 15 37 8 10 15 28 15 38 0 11 7 28 16 37 9 10 18 30 19 44 2 13 11 32 20 41 9 10 15 27 13 39-3 14 2 26 14 34 10 6 18 22 18 35s7 29 15 36 15 21 15 32 9 31 20 45 20 35 20 47c0 11 7 30 15 40 8 11 15 27 15 37 0 9 6 22 14 28 8 7 17 24 20 39 6 26 24 67 53 124 7 14 13 35 13 46s7 25 16 33c10 8 14 23 12 41-3 16 1 33 9 39 16 14 17 43 1 72-6 12-11 36-10 52 1 17-4 37-11 46-21 27-110 77-237 134-112 50-121 52-130 35-13-24-13-30 0-30 6 0 84-32 174-71 130-56 166-76 175-96 7-14 10-27 9-28-2-2-88 34-193 80-177 77-191 81-199 64-5-11-7-21-5-22 2-2 92-41 199-87s199-87 203-91c5-3 7-16 5-27-3-19-18-14-198 64-107 46-203 88-212 94-14 8-20 5-29-11-6-11-9-22-7-23s95-42 208-90c237-100 233-98 225-118-5-13-24-8-113 32-291 128-333 144-343 129-5-8-9-16-9-19s99-48 220-100 220-97 220-100-4-11-9-19c-7-11-52 5-230 82-204 88-221 94-227 75-3-11-4-21-2-22 1-2 100-45 218-96 118-50 216-93 218-95 5-5-11-35-19-35-9 0-356 147-412 175-25 12-28 12-38-7-6-11-9-21-7-22 2-2 100-44 218-94s216-95 217-99c2-4-1-14-6-22-8-12-50 3-230 81-122 52-221 92-221 87 0-4-2-14-5-21-4-10 55-40 215-108 121-52 220-97 220-100s-4-11-9-19c-8-12-50 3-230 81-209 91-222 95-232 77-9-17-5-22 33-38 24-10 124-53 223-96 99-42 181-78 182-79 2-2-3-10-10-20-12-17-25-13-193 59-98 43-197 86-218 96-22 10-40 18-41 16-2-1-5-11-8-22-6-18 18-30 213-114 121-52 220-97 220-102 0-4-4-11-10-14-7-4-173 64-436 181-9 4-29-36-21-41 1-1 99-43 217-93s216-95 217-99c2-4-1-14-6-21-8-13-27-5-437 174-14 6-28-26-17-37 4-4 103-49 218-98 198-86 220-100 196-124-4-4-105 36-226 88-120 52-219 94-221 93-1-2-4-11-6-22-2-15 32-34 212-111 118-51 216-97 217-101 1-5-1-15-6-22-6-10-58 8-227 81-204 88-220 94-228 76-5-11-7-21-5-22 2-2 99-44 214-92 116-49 213-92 218-95 4-3 1-13-5-22-12-14-36-6-228 77-195 84-216 91-228 77-12-15-4-21 65-53 43-19 142-62 220-95 78-32 142-63 143-69 0-39-20-34-235 60-161 70-221 92-227 82-4-6-6-16-5-21 2-5 100-51 218-102s213-96 212-99c-10-34 17-42-270 83-169 74-183 78-189 60-3-11-4-21-2-22 1-2 100-45 218-96s216-93 217-95c2-1-3-9-10-18-11-16-31-9-229 77-203 88-219 93-228 76-6-10-7-21-3-23 5-2 100-44 213-92s209-92 214-96c6-6 6-13-1-20-8-8-60 10-189 66-99 43-196 86-217 95-36 18-37 18-48-2-6-11-9-21-7-22s99-43 216-93c199-86 215-91 250-81s155 6 197-6c18-6 42 44 240 505 121 281 225 532 231 558 44 193-150 450-400 530-78 25-126 33-126 22z"/>
  <path d="m1848 2955c-14-34-236-520-357-780-20-44-64-139-96-212-33-73-63-131-67-130-6 2-428 520-682 838-56 70-102 126-103 125-2-1 6-34 17-73 61-220 286-600 603-1021l70-92-108-238c-60-130-110-239-112-241-1-2-17 10-34 27-52 51-114 75-207 80-95 5-147-6-243-54-329-163-421-622-157-781 216-131 553 20 673 300 12 29 67 145 123 258 56 114 124 258 152 320 28 63 55 118 59 122s30-21 57-55c58-74 380-461 415-499 13-14 42-61 63-104 102-203 325-331 526-303 108 14 199 79 246 173 31 65 43 183 25 265-28 130-131 278-247 355-201 134-451 110-553-51l-29-44-94 117c-52 65-143 177-202 250l-107 132 37 88c234 561 361 992 352 1198l-3 70-17-40zm-28-224c-11-72-41-196-60-251-5-14-20-65-35-115-32-106-133-380-210-566-30-73-55-144-55-157 0-14 17-46 37-71 21-25 43-53 50-61 6-8 47-58 90-111s100-125 127-159 65-78 84-98l35-36 21 28c77 101 149 145 251 153 220 18 450-151 520-384 20-65 18-186-3-245-23-65-79-128-138-157-106-53-283-35-399 41-80 52-162 143-200 223-19 39-44 83-56 96-11 13-33 38-47 54-64 72-197 230-297 355-100 124-141 170-152 170-14 0-39-42-88-145-30-64-55-119-55-121s-48-102-107-222c-60-120-121-246-136-280-72-155-266-282-436-284-132-1-228 51-283 154-20 38-23 57-23 163 0 118 1 121 38 197 92 189 299 320 483 305 69-5 155-40 198-80 16-15 32-27 36-27 14 0 37 36 70 110 18 41 51 113 73 160 97 210 106 231 100 248-4 9-39 60-78 112-244 325-496 734-549 890l-16 45 21-25c11-14 33-38 48-55 15-16 51-61 81-100 75-98 220-277 242-298 10-10 18-21 18-25s15-23 33-42c29-31 74-86 148-181 120-154 122-155 151-121 8 9 62 121 120 247 300 656 352 767 356 755 3-7-1-47-8-89z"/>
  <path d="m1311 1654c-27-34-26-62 2-96 35-42 62-44 97-9 37 37 40 78 7 109s-80 29-106-4zm98-25c26-43-42-92-77-57-19 19-14 55 9 71 25 18 51 12 68-14z"/>
  <path d="m2202 1144c-13-14-122-255-136-301-9-28 49-119 103-162 133-106 285-114 353-19 19 27 24 49 26 115 4 74 1 87-26 145-17 34-53 86-79 114-84 86-210 143-241 108zm117-47c102-47 198-185 208-297 6-68-21-131-67-155-77-40-213 0-300 88-80 80-80 75-15 228 32 74 61 142 67 152 10 20 37 16 107-16z"/>
  <path d="m670 1071c-146-45-279-209-288-356-5-68 10-109 57-157 99-104 327-16 429 165 31 54 72 174 72 210 0 25-63 103-104 128-32 20-117 25-166 10zm149-36c16-8 45-33 64-55l35-41-25-82c-14-45-35-100-48-122-33-57-116-132-178-160-69-33-162-35-201-4-131 103-18 379 189 462 51 20 128 21 164 2z"/>
  <path d="m1680 1493c1-27 67-74 168-117 100-44 114-48 139-37 25 12 21 15-118 75-79 34-154 68-166 75-13 6-23 8-23 4z"/>
  <path d="m1833 1304c47-45 49-46 68-28 20 18 19 18-42 46-34 15-64 28-68 28-3 0 16-21 42-46z"/>
  <path d="m1477 1183c-14-14-6-29 23-40l29-11-21 29c-25 33-22 31-31 22z"/>
  <path d="m1447 1109c-4-16 2-24 29-35 19-8 60-26 91-39 31-14 57-24 59-23 9 10-63 70-111 92-32 14-59 26-60 26s-5-9-8-21z"/>
  <path d="m1419 1040c-1-5-2-15-3-20-1-10 334-163 341-157 1 2-14 20-35 39-25 25-79 55-166 92-146 63-135 59-137 46z"/>
  <path d="m1377 950c-4-16 3-24 36-38 23-10 122-51 219-92 98-41 177-79 178-85 0-39-20-34-235 60-159 68-221 91-227 82-4-7-6-16-5-21 3-8 260-124 400-181 32-13 36-18 28-34-10-17-25-12-228 75-120 52-221 94-224 94-4 0-9-8-11-18-5-19 19-31 329-163 57-24 103-48 103-54 0-38-21-32-235 61-167 73-220 92-226 82-5-7-8-17-6-21 2-8 225-107 370-165 71-28 72-29 58-51-7-10-55 7-227 82-204 88-220 94-228 76-5-11-7-21-5-22 2-2 101-45 220-96 187-80 216-96 212-112-3-10-7-19-8-19-2 0-103 43-226 95-122 53-223 94-224 93-2-2-5-11-7-21-2-15 34-34 214-110 120-51 218-96 218-102 0-39-20-34-235 60-161 70-221 92-227 82-4-6-6-16-5-21 2-5 100-51 218-102 202-88 224-102 201-126-4-4-104 35-222 87-192 83-216 91-228 77-6-9-9-19-5-22 5-4 100-46 213-94 113-49 207-90 209-92 3-3-2-11-10-19-13-13-40-4-223 76-161 69-211 87-217 77-5-7-7-17-6-22 2-4 89-45 195-90 188-79 192-81 163-93-28-12-42-8-193 58-90 39-168 73-175 76-6 2-16-4-22-15-9-18-1-24 97-65 59-26 120-51 136-57s27-13 24-15c-6-7-168 22-241 42-106 29-82-6 48-72 39-19 97-42 130-50 57-14 174-21 163-9-4 3-44 14-90 24-82 18-173 48-152 49 6 1 35-4 65-9 48-9 57-8 81 10 26 19 30 20 59 5 39-21 84-11 105 21 9 13 20 22 24 19 5-3 15-2 23 1 20 7 87 109 87 131 0 9 8 25 17 35s17 26 18 36c0 10 9 29 18 42 9 14 17 34 17 46s7 27 15 34 15 21 15 32c0 10 10 32 21 48 12 16 19 35 16 43-3 9 0 18 8 21s17 21 20 40c13 65 29 63 76-9 24-36 47-65 51-65s8-8 8-17c0-17-101-266-139-341-45-91-116-139-264-178l-92-24 82 4c95 5 167 33 230 89 44 41 56 62 152 285l70 163-44 57c-24 31-57 84-73 116l-29 59-217 94c-119 51-218 93-220 93s-6-9-9-20z"/>
 </g>
</svg>
