<?xml version="1.0" standalone="no"?>
<!DOCTYPE svg PUBLIC "-//W3C//DTD SVG 20010904//EN"
 "http://www.w3.org/TR/2001/REC-SVG-20010904/DTD/svg10.dtd">
<svg version="1.0" xmlns="http://www.w3.org/2000/svg"
 width="1280.000000pt" height="640.000000pt" viewBox="0 0 1280.000000 640.000000"
 preserveAspectRatio="xMidYMid meet">
<g transform="translate(0.000000,640.000000) scale(0.100000,-0.100000)"
fill="#000000" stroke="none">
<path d="M10255 5349 c-233 -31 -445 -140 -577 -297 -62 -73 -106 -147 -213
-362 -48 -96 -102 -201 -121 -232 l-34 -56 -188 -46 c-331 -80 -523 -113
-1272 -216 -439 -61 -521 -74 -940 -150 -366 -67 -530 -93 -905 -145 -143 -19
-325 -46 -405 -60 -269 -44 -318 -48 -547 -42 -248 6 -340 18 -758 101 -294
57 -384 72 -1155 186 -547 80 -862 131 -1429 230 -222 38 -564 95 -760 125
-196 30 -414 69 -485 86 -116 28 -135 30 -185 20 -140 -28 -219 -123 -261
-312 -11 -51 -20 -112 -20 -136 l0 -43 65 0 c75 0 78 3 89 100 6 52 6 54 -7
25 -19 -40 -53 -69 -72 -62 -23 9 -18 62 15 156 48 138 86 149 76 21 -5 -62
-4 -64 10 -38 16 30 49 52 64 43 17 -10 11 -66 -15 -150 -14 -44 -25 -94 -25
-111 0 -27 4 -32 31 -38 17 -3 51 -6 75 -6 51 0 50 -1 57 133 5 93 23 137 56
137 37 0 41 -75 11 -188 -22 -81 -15 -122 19 -122 11 0 32 -5 47 -12 22 -10
28 -10 40 6 7 10 16 44 19 75 14 132 44 201 86 201 39 0 37 -63 -7 -203 -13
-43 -24 -80 -24 -82 0 -6 123 -45 141 -45 14 0 21 17 34 78 27 128 43 176 65
200 16 17 25 20 35 12 26 -22 26 -63 -1 -178 -32 -134 -31 -136 64 -148 69 -8
76 0 92 99 15 95 26 129 51 156 53 57 74 -8 38 -122 -26 -84 -30 -164 -8 -178
22 -14 85 -11 99 6 7 8 14 36 17 63 l4 47 -18 -27 c-31 -49 -73 -30 -73 33 0
20 11 71 25 113 40 122 35 136 -52 151 -52 8 -57 0 -84 -133 -28 -140 -55
-171 -99 -114 -26 32 -23 75 12 183 11 36 19 73 15 81 -4 11 -25 17 -69 21
-74 5 -84 -2 -93 -72 -10 -75 -33 -146 -53 -164 -10 -9 -32 -20 -49 -23 -45
-9 -49 18 -19 130 41 150 37 166 -50 180 -54 9 -64 -4 -75 -101 -12 -112 -17
-128 -45 -154 -25 -24 -26 -24 -40 -5 -18 25 -18 64 2 138 8 33 14 81 12 106
l-3 47 -47 3 c-60 4 -73 -14 -89 -121 -13 -85 -42 -142 -74 -142 -29 0 -31 57
-5 176 12 55 19 106 16 114 -3 8 -16 15 -30 15 -46 0 -76 18 -76 44 0 36 57
49 215 49 142 -1 231 -14 517 -74 103 -21 380 -68 615 -104 994 -152 1698
-263 3033 -481 85 -14 158 -28 163 -33 4 -4 -1 -15 -11 -24 -20 -19 -90 -32
-213 -42 -92 -8 -135 -30 -147 -77 l-8 -33 -77 -3 -76 -3 -7 -37 c-17 -100
-39 -142 -76 -142 -33 0 -42 46 -24 120 20 81 20 77 -5 91 -85 45 -107 30
-119 -81 -10 -97 -25 -140 -51 -140 -39 0 -50 70 -24 156 22 74 20 103 -11
114 -72 28 -93 7 -124 -123 -30 -131 -52 -166 -92 -145 -13 6 -18 22 -19 56
l-1 47 -13 -41 c-18 -59 -33 -84 -50 -84 -19 0 -35 32 -36 72 0 31 -1 30 -20
-20 -25 -65 -46 -66 -70 -3 l-16 43 -13 -31 c-17 -43 -58 -75 -76 -60 -20 16
-18 44 10 129 14 41 29 93 33 115 11 57 42 55 64 -4 l16 -44 22 63 c28 84 27
98 -7 106 -15 3 -37 10 -50 15 -13 5 -25 9 -27 9 -14 0 -37 -72 -46 -143 -14
-113 -25 -150 -53 -176 -52 -49 -57 -4 -22 194 13 72 22 133 19 138 -2 4 -28
7 -58 7 -63 0 -63 1 -75 -126 -9 -104 -22 -138 -63 -168 -24 -17 -29 -18 -41
-6 -12 13 -12 29 0 114 7 54 18 115 24 135 15 54 13 61 -25 77 -82 34 -98 17
-115 -122 -13 -102 -30 -148 -61 -164 -56 -30 -62 64 -14 213 14 43 25 84 25
93 0 33 -102 47 -119 15 -6 -10 -24 -74 -41 -142 -17 -68 -37 -131 -46 -139
-14 -13 -17 -13 -35 9 -24 30 -24 67 2 158 11 40 19 92 17 116 l-3 42 -52 3
c-50 3 -51 2 -61 -30 -6 -18 -16 -66 -22 -106 -15 -105 -38 -142 -86 -142 -20
0 -18 43 11 176 14 64 25 122 25 129 0 15 -13 20 -72 30 -46 9 -53 -2 -68
-115 -14 -108 -28 -155 -52 -176 -17 -16 -19 -16 -37 0 -30 27 -31 62 -4 172
14 57 23 110 19 119 -7 18 -47 35 -85 35 -34 0 -42 -15 -76 -150 -26 -101 -43
-150 -54 -150 -25 1 -51 47 -51 89 0 16 12 67 26 111 14 45 23 87 21 94 -3 6
-29 19 -58 29 -65 21 -72 15 -89 -72 -29 -155 -57 -199 -106 -166 -19 12 -24
24 -25 58 l0 42 -15 -39 c-13 -37 -22 -122 -13 -130 2 -2 32 -6 67 -8 l62 -4
10 35 c5 20 10 54 10 76 0 83 40 160 80 153 32 -6 35 -70 7 -161 -39 -124 -38
-133 25 -152 28 -8 60 -15 69 -15 21 0 33 40 44 140 10 103 39 150 90 150 29
0 28 -30 -5 -170 -19 -77 -30 -143 -26 -147 4 -4 38 -9 75 -11 80 -5 76 -10
92 121 12 99 38 173 64 184 39 14 44 -45 15 -157 -21 -79 -25 -137 -12 -158
13 -19 71 -33 92 -22 20 11 26 31 35 130 9 83 37 150 63 150 36 0 42 -65 17
-160 -22 -81 -20 -147 4 -160 30 -15 56 -12 84 10 26 20 37 56 52 173 7 55 52
116 75 102 17 -11 7 -122 -21 -210 -11 -37 -18 -73 -16 -80 7 -16 87 -55 114
-55 19 0 22 7 27 68 14 151 44 222 96 222 32 0 33 -20 6 -128 -40 -157 -35
-202 21 -202 69 0 84 22 107 158 16 91 38 135 64 130 26 -5 18 -129 -15 -263
l-28 -110 -110 -6 c-60 -4 -211 -12 -335 -19 -215 -11 -710 -45 -1590 -110
-364 -26 -683 -47 -1022 -65 -65 -4 -118 -11 -118 -16 0 -5 13 -35 29 -67 93
-180 293 -334 491 -379 92 -20 524 -23 745 -5 137 12 401 21 1235 42 228 6
534 15 680 20 146 5 713 10 1260 10 955 0 1324 8 1513 31 107 13 178 3 362
-52 132 -40 279 -72 1240 -269 1098 -225 2052 -427 2068 -437 4 -2 26 -41 48
-86 145 -290 312 -477 514 -577 200 -98 481 -122 705 -60 231 65 435 209 515
362 54 105 79 134 129 153 39 15 54 16 111 6 181 -32 538 -186 656 -284 116
-96 176 -214 164 -319 -8 -74 5 -101 43 -92 106 26 195 83 228 145 27 53 46
122 41 153 -10 65 -39 152 -72 215 -114 216 -270 310 -805 483 -102 33 -213
73 -247 88 l-61 28 -6 68 c-19 216 -71 321 -238 480 -162 154 -365 252 -587
284 -132 20 -345 8 -456 -24 -262 -77 -476 -236 -578 -431 -25 -49 -55 -100
-64 -111 -21 -26 -74 -54 -102 -54 -27 0 -108 21 -1661 429 -399 104 -786 202
-860 216 -392 75 -515 106 -578 145 -39 24 -72 75 -72 111 0 29 36 126 55 147
6 7 303 67 681 137 1064 197 1877 354 2028 391 243 59 297 48 462 -93 414
-356 927 -459 1284 -258 94 53 242 167 302 235 91 100 165 244 209 405 30 112
37 298 15 398 -87 391 -513 692 -1008 711 -62 3 -144 1 -183 -5z m356 -109
c308 -63 575 -236 680 -442 10 -20 30 -76 45 -125 50 -168 32 -392 -46 -575
-107 -250 -321 -419 -634 -501 -125 -32 -336 -29 -469 7 -123 33 -270 89 -322
123 -22 14 -99 85 -171 158 -156 157 -195 180 -299 179 -44 0 -118 -12 -200
-33 -162 -40 -572 -122 -1270 -252 -956 -177 -1257 -238 -1375 -275 -156 -49
-231 -54 -301 -22 -30 14 -83 49 -119 78 -54 43 -66 49 -69 34 -7 -39 32 -84
136 -155 106 -72 138 -108 149 -166 16 -87 -23 -142 -176 -247 -60 -41 -86
-68 -132 -135 -32 -46 -68 -96 -81 -111 l-24 -27 -579 -6 c-319 -4 -727 -12
-909 -17 -181 -5 -512 -14 -735 -20 -223 -5 -576 -15 -785 -20 -574 -15 -1410
-29 -1875 -31 -357 -2 -424 0 -483 14 -71 18 -147 52 -147 66 0 15 90 21 324
21 635 0 3590 69 3705 86 l34 5 -7 187 c-3 106 -16 258 -29 350 -13 89 -21
166 -17 171 7 12 189 42 495 81 383 49 509 67 1065 151 502 76 1182 176 1877
274 177 25 407 61 511 80 104 19 295 46 423 60 372 40 492 73 589 161 61 55
83 94 135 245 28 80 64 160 90 200 126 195 368 372 585 428 104 28 279 28 411
1z m-6755 -1705 c4 -9 2 -48 -4 -87 -12 -79 -44 -127 -77 -114 -15 5 -17 17
-13 74 6 90 29 142 63 142 14 0 28 -7 31 -15z m200 -51 c15 -61 -23 -145 -60
-131 -22 9 -22 104 0 135 21 30 52 29 60 -4z m218 -29 c9 -9 20 -23 25 -33 8
-14 11 -14 25 -2 13 10 20 10 29 1 22 -22 -6 -45 -66 -55 -64 -10 -87 0 -87
41 0 56 40 81 74 48z m34 -139 c41 -21 58 -45 80 -113 23 -70 56 -267 49 -287
-4 -9 -37 -15 -102 -20 -245 -17 -800 -36 -1330 -46 -808 -14 -1441 -29 -1700
-40 -443 -19 -813 -8 -958 29 -94 25 -167 61 -201 101 -26 31 -43 76 -33 86 3
3 121 12 264 19 510 28 1140 70 2428 165 369 27 834 61 1034 75 200 14 371 30
380 35 23 14 58 12 89 -4z m2287 -260 c334 -78 821 -204 1475 -381 687 -186
1476 -394 1521 -400 84 -12 142 39 254 225 87 145 134 195 264 281 198 133
274 159 471 159 257 0 498 -94 682 -268 156 -147 242 -319 274 -547 l9 -60 65
-18 c634 -180 1005 -372 1093 -567 15 -31 21 -66 21 -116 1 -94 -30 -155 -99
-202 -69 -47 -79 -42 -87 46 -8 99 -44 170 -127 252 -81 81 -168 138 -340 224
-172 87 -261 121 -363 142 -146 30 -175 15 -299 -162 -189 -269 -382 -379
-685 -391 -150 -7 -258 6 -379 44 -171 54 -319 146 -419 263 -57 66 -76 101
-121 226 -58 160 -65 168 -162 204 -145 52 -253 78 -656 160 -1617 326 -2883
592 -2900 609 -14 14 8 62 55 122 48 61 216 198 243 199 11 0 106 -20 210 -44z"/>
<path d="M10300 5059 c-296 -39 -532 -224 -594 -466 -23 -88 -21 -250 4 -347
58 -228 230 -397 476 -468 105 -30 333 -32 434 -4 66 18 342 152 378 184 29
24 136 233 163 317 47 144 25 324 -58 464 -136 229 -474 363 -803 320z m355
-84 c107 -29 220 -90 294 -160 109 -104 161 -220 161 -365 0 -223 -104 -378
-327 -490 -113 -56 -214 -81 -358 -87 -146 -6 -237 11 -345 63 -238 117 -369
431 -282 677 65 182 247 323 482 373 83 17 292 11 375 -11z"/>
<path d="M4887 3409 c-60 -14 -114 -46 -144 -86 -24 -31 -28 -46 -27 -97 0
-72 23 -123 81 -178 50 -49 105 -71 174 -70 119 0 192 82 192 213 0 164 -117
256 -276 218z m68 -63 c18 -13 17 -16 -24 -80 -49 -75 -115 -139 -138 -134
-25 5 -36 51 -23 97 25 93 128 159 185 117z m165 -102 c24 -72 -15 -164 -84
-195 -42 -19 -131 -26 -140 -11 -9 15 67 133 121 189 61 64 87 68 103 17z"/>
<path d="M10407 2704 c-142 -22 -215 -66 -317 -193 -107 -133 -157 -275 -146
-416 12 -169 65 -294 171 -401 83 -84 166 -133 290 -170 78 -23 109 -27 230
-28 168 -1 246 15 383 81 241 115 354 336 310 608 -28 172 -109 297 -253 394
-181 121 -414 165 -668 125z m418 -78 c218 -74 384 -237 440 -429 24 -83 17
-231 -15 -312 -34 -89 -146 -198 -260 -252 -207 -100 -391 -107 -574 -24 -174
79 -303 213 -356 372 -29 84 -25 235 8 319 45 113 147 221 282 298 94 53 137
62 275 59 99 -3 134 -9 200 -31z"/>
<path d="M1260 4031 l0 -59 30 30 c17 16 36 28 43 26 22 -8 18 -82 -12 -183
-22 -77 -26 -103 -17 -113 18 -19 123 -39 137 -25 6 6 13 48 15 94 4 84 4 84
-11 45 -29 -74 -63 -88 -90 -36 -21 40 -19 57 15 150 17 45 30 87 30 95 0 17
-52 35 -101 35 l-39 0 0 -59z"/>
<path d="M1483 4017 c-7 -14 -15 -42 -18 -64 l-7 -38 21 32 c20 32 60 51 80
38 17 -10 13 -61 -14 -161 -31 -113 -26 -130 39 -139 83 -13 94 0 94 105 l1
55 -14 -46 c-8 -25 -23 -53 -34 -63 -19 -17 -20 -17 -40 3 -27 27 -27 72 -1
170 21 80 24 107 13 114 -5 3 -31 8 -59 12 -47 6 -51 5 -61 -18z"/>
<path d="M1719 3994 c-14 -17 -39 -101 -39 -128 1 -14 6 -8 14 17 18 48 34 67
57 67 26 0 40 -41 34 -93 l-6 -42 19 45 c25 58 34 102 24 117 -13 20 -90 33
-103 17z"/>
<path d="M3585 3636 c-18 -27 -47 -159 -43 -190 2 -12 12 13 24 54 18 66 23
75 45 78 39 5 53 -19 40 -65 -19 -67 -10 -70 14 -6 38 98 39 109 16 132 -29
29 -76 28 -96 -3z"/>
</g>
</svg>
